<svg version="1.1" id="Layer_1" xmlns="http://www.w3.org/2000/svg" xmlns:xlink="http://www.w3.org/1999/xlink" x="0px" y="0px"
	 width="100%" viewBox="0 0 1877 345" enable-background="new 0 0 1877 345" xml:space="preserve">
<path fill="#000000" opacity="1.000000" stroke="none" 
	d="
M1414.000000,346.000000 
	C942.719543,346.000000 471.939087,346.000000 1.079309,346.000000 
	C1.079309,231.065842 1.079309,116.131599 1.079309,1.098679 
	C626.666687,1.098679 1252.333374,1.098679 1877.973389,1.098679 
	C1877.973389,116.061211 1877.973389,231.030609 1877.973389,346.000000 
	C1723.464600,346.000000 1568.982300,346.000000 1414.000000,346.000000 
M928.200745,174.976471 
	C926.748779,175.314362 925.296875,175.652267 923.159485,176.494659 
	C923.108948,176.990662 923.014160,177.486649 923.014038,177.982681 
	C923.004700,227.454391 922.995911,276.926086 923.041992,326.397766 
	C923.043091,327.542938 923.668945,328.687500 924.930542,329.975464 
	C939.858459,329.975464 954.786438,329.975464 969.998596,329.975464 
	C969.998596,328.405151 969.998596,327.430359 969.998596,326.455566 
	C969.998657,277.302917 969.998779,228.150284 969.998779,178.997650 
	C969.998779,178.497787 970.208679,177.803024 969.959290,177.533112 
	C969.059509,176.559250 968.004822,175.728455 966.503967,174.158661 
	C955.375854,174.105774 944.247620,174.023026 933.119629,174.038116 
	C931.742981,174.039978 930.367065,174.562576 928.200745,174.976471 
M762.116516,174.977585 
	C758.143066,174.397568 759.010498,177.265717 759.009888,179.417679 
	C758.996338,228.238998 758.997498,277.060303 759.010559,325.881622 
	C759.010925,327.156586 759.177002,328.431488 759.264526,329.687561 
	C774.988342,329.687561 790.381226,329.687561 805.985474,329.687561 
	C805.985474,327.562531 805.985413,325.748505 805.985413,323.934448 
	C805.985413,276.446136 805.985352,228.957809 805.986084,181.469498 
	C805.986084,180.136536 806.385315,178.628799 805.889099,177.519943 
	C805.396545,176.419327 804.006714,175.720200 802.505676,174.159698 
	C790.045593,174.107971 777.585449,174.042297 765.125366,174.040726 
	C764.413513,174.040634 763.701477,174.564301 762.116516,174.977585 
M841.159058,118.495270 
	C841.108643,118.991371 841.014099,119.487465 841.014038,119.983574 
	C841.004944,188.788406 840.997864,257.593231 841.041809,326.398041 
	C841.042542,327.543671 841.668884,328.688904 842.930359,329.977722 
	C857.846863,329.977722 872.763306,329.977722 887.661743,329.977722 
	C887.661743,258.702271 887.661743,187.932861 887.661743,117.001190 
	C873.012756,117.001190 858.713135,116.984161 844.413757,117.043503 
	C843.555786,117.047058 842.700378,117.660515 841.159058,118.495270 
M690.972595,215.015305 
	C702.965454,214.963394 714.958313,214.911469 727.793396,214.628357 
	C727.793396,202.865540 727.793396,191.102722 727.793396,178.847137 
	C715.041260,178.847137 702.642334,178.847137 689.998169,178.847137 
	C689.998169,167.373230 690.035706,156.395721 689.955078,145.419067 
	C689.943848,143.892868 689.350403,142.370941 688.515198,140.164322 
	C675.052551,140.111038 661.589905,140.044830 648.127258,140.040619 
	C647.415527,140.040390 646.703735,140.564911 645.120117,140.982834 
	C644.413269,142.283661 643.118042,143.573624 643.093750,144.887054 
	C642.918518,154.374298 642.808716,163.871933 643.087585,173.354248 
	C643.213135,177.623154 642.101013,179.369415 637.542358,179.091751 
	C631.470459,178.721909 625.359070,179.000427 618.987549,179.000427 
	C618.987549,189.761642 619.159973,199.899094 618.904114,210.025742 
	C618.799316,214.171555 620.497986,215.175110 624.220520,215.053314 
	C630.328857,214.853485 636.448486,214.999191 643.000793,214.999191 
	C643.000793,217.098465 643.000793,218.718506 643.000732,220.338531 
	C643.000671,238.820023 642.642273,257.311523 643.157654,275.778625 
	C643.400513,284.482391 643.874329,293.278259 647.205505,301.719513 
	C653.060181,316.555237 664.144714,325.178955 678.769836,329.973358 
	C690.914124,333.954529 703.361206,333.803589 715.794434,331.952606 
	C724.537964,330.650940 732.760681,327.673828 739.867737,322.628296 
	C735.632324,311.581268 731.490234,300.777588 727.260925,289.746429 
	C723.732239,291.251587 720.603394,293.079803 717.230042,293.890869 
	C713.616272,294.759674 709.776184,294.724152 706.028198,294.989380 
	C697.214050,295.613098 690.199524,288.288086 690.090576,279.535278 
	C689.823242,258.061981 690.030212,236.582794 690.972595,215.015305 
M1055.298706,293.256348 
	C1055.612305,293.146301 1056.037842,293.131256 1056.223267,292.912567 
	C1066.516235,280.767334 1076.724487,268.549530 1087.080566,256.458557 
	C1100.123291,241.230850 1113.380127,226.185394 1126.319580,210.871216 
	C1129.045166,207.645477 1132.143066,203.788528 1132.702393,199.883423 
	C1133.729370,192.713135 1133.075317,185.288834 1132.907715,177.975342 
	C1132.883423,176.917557 1131.671143,175.886978 1130.504150,174.158737 
	C1088.046753,174.107269 1045.589355,174.051682 1003.131958,174.039337 
	C1002.418396,174.039124 1001.704712,174.563629 1000.122192,174.977570 
	C997.867676,174.691757 996.863525,175.426895 996.946045,177.949524 
	C997.125610,183.439713 997.001404,188.939835 997.001404,194.435898 
	C997.001343,199.858871 997.001404,205.281830 997.001404,211.064926 
	C1022.314026,211.064926 1046.853271,211.064926 1071.994019,211.064926 
	C1070.995239,212.684265 1070.466553,213.866119 1069.656494,214.805344 
	C1058.829346,227.360291 1047.885132,239.815186 1037.125488,252.427444 
	C1023.634644,268.240997 1010.272766,284.164642 996.910706,300.087311 
	C996.035706,301.130035 995.116211,302.559082 995.092834,303.824615 
	C994.933655,312.425995 995.009644,321.031677 995.009644,329.718201 
	C1041.913940,329.718201 1088.282104,329.718201 1134.999634,329.718201 
	C1134.999634,319.312256 1135.033325,309.184723 1134.959717,299.057983 
	C1134.949707,297.691833 1134.400269,296.329559 1133.641968,294.214996 
	C1131.823853,294.143341 1130.005981,294.012665 1128.187744,294.008881 
	C1103.799927,293.958252 1079.412231,293.925385 1055.298706,293.256348 
M385.044037,237.986618 
	C373.383972,238.041992 361.723938,238.097366 349.157196,238.010437 
	C345.556305,238.340118 341.959106,238.897232 338.353851,238.955307 
	C328.913086,239.107346 320.118561,241.612778 311.268646,244.808945 
	C287.362915,253.442490 278.651184,278.848450 286.111328,300.550873 
	C291.347595,315.783661 302.947174,324.852570 318.058502,329.515930 
	C333.793671,334.371796 349.651917,334.540558 365.503815,329.993500 
	C374.614471,327.380127 382.242889,322.314758 389.307312,314.045258 
	C389.307312,320.247650 389.307312,324.966400 389.307312,329.750427 
	C404.078247,329.750427 418.333130,329.750427 432.999969,329.750427 
	C432.999969,327.713531 432.999939,325.920349 432.999939,324.127197 
	C432.999847,296.962250 432.858429,269.796204 433.068298,242.632889 
	C433.153992,231.538147 431.695068,220.851013 427.811951,210.435852 
	C423.346069,198.457611 415.257446,189.597687 404.413208,183.308136 
	C394.921143,177.802841 384.575684,174.302597 373.560089,173.697540 
	C363.143494,173.125381 352.588898,172.229813 342.281921,173.291351 
	C331.898346,174.360748 321.503693,176.934525 311.566559,180.218735 
	C303.561615,182.864334 296.231445,187.551514 288.712097,191.278259 
	C294.972473,203.148422 300.590820,213.801300 305.751373,223.586136 
	C313.338623,220.140762 319.786560,216.846008 326.502716,214.243271 
	C338.524658,209.584396 350.999939,208.686600 363.675507,211.044373 
	C377.644135,213.642670 387.370361,224.975861 385.044037,237.986618 
M1249.041260,237.985336 
	C1237.381470,238.052551 1225.721558,238.119766 1213.162109,238.076355 
	C1200.297363,238.984940 1187.514526,239.721451 1175.270752,244.821396 
	C1151.237305,254.832199 1144.937134,273.912781 1148.490112,294.258667 
	C1151.560791,311.842255 1163.680786,323.082916 1180.613159,329.032928 
	C1194.480835,333.906006 1208.732300,334.405853 1222.830078,331.678833 
	C1230.086426,330.275177 1237.044678,326.476929 1243.645508,322.862061 
	C1247.543213,320.727509 1250.478760,316.836365 1254.265137,313.350189 
	C1254.265137,319.061798 1254.265137,324.455353 1254.265137,329.773865 
	C1268.670898,329.773865 1282.605835,329.773865 1296.999756,329.773865 
	C1296.999756,327.769440 1296.999756,325.983276 1296.999756,324.197083 
	C1296.999878,295.381744 1297.045044,266.566254 1296.953613,237.751221 
	C1296.939087,233.171875 1296.746094,228.511261 1295.888916,224.031082 
	C1292.778687,207.774216 1285.733521,193.773682 1271.175781,184.752457 
	C1261.570068,178.799881 1251.039795,175.251862 1239.746094,173.964325 
	C1224.754883,172.255280 1209.808838,172.202850 1194.954834,175.031189 
	C1181.215332,177.647278 1168.038452,181.771240 1156.318359,189.816467 
	C1154.257202,191.231354 1153.496582,192.107208 1154.738403,194.452896 
	C1157.468140,199.609390 1159.900513,204.922653 1162.598999,210.096497 
	C1165.094604,214.881348 1167.778320,219.567978 1170.315430,224.181747 
	C1187.767212,213.091721 1205.692993,207.891266 1225.808838,210.913040 
	C1241.841309,213.321426 1250.271240,223.736526 1249.041260,237.985336 
M291.500000,84.999214 
	C299.330536,84.999260 307.170319,85.207069 314.985352,84.858788 
	C317.035950,84.767403 319.657501,83.451019 320.901093,81.837326 
	C325.157990,76.313599 328.879547,70.380165 332.875977,64.652336 
	C344.545258,47.927532 356.256958,31.232319 367.914886,14.499616 
	C368.505646,13.651680 368.748474,12.561356 369.297272,11.236341 
	C367.588562,11.134939 366.456726,11.009051 365.324921,11.008954 
	C259.196411,10.999852 153.067886,11.011784 46.939442,10.938833 
	C44.084354,10.936872 42.362595,11.663181 41.206310,14.359765 
	C31.516777,36.956776 21.673967,59.488518 12.115261,82.140320 
	C11.320525,84.023651 11.620906,86.955124 12.536096,88.859688 
	C14.899852,93.778786 17.769249,98.472389 20.657841,103.118576 
	C29.744610,117.734245 38.917297,132.296631 48.091866,146.857498 
	C50.794075,151.146149 53.612988,155.361252 56.873917,160.371368 
	C62.455318,147.333817 67.396286,135.791946 72.337502,124.250191 
	C77.242020,112.794128 82.254311,101.382332 86.988472,89.856308 
	C88.483627,86.216141 90.419571,84.872650 94.570732,84.883156 
	C159.880173,85.048378 225.190155,84.999153 291.500000,84.999214 
M1502.958374,287.627594 
	C1506.646240,300.071930 1510.216553,312.553772 1514.160889,324.916290 
	C1514.693115,326.584717 1517.085693,328.797150 1518.649780,328.823730 
	C1535.307373,329.106964 1551.971558,329.002533 1568.634033,328.996521 
	C1571.439697,328.995514 1572.364258,328.342682 1571.134766,325.128357 
	C1567.315308,315.142059 1564.101807,304.925751 1560.390625,294.895752 
	C1554.789307,279.756775 1548.800293,264.760284 1543.280029,249.592560 
	C1536.599731,231.237976 1530.409546,212.704712 1523.697388,194.362183 
	C1512.434448,163.583359 1500.926636,132.894180 1489.459595,102.000000 
	C1475.632812,102.000000 1461.811768,102.092636 1447.993042,101.952835 
	C1442.721802,101.899498 1438.738647,101.686470 1436.726807,108.700546 
	C1433.482300,120.011925 1428.236694,130.738007 1424.059326,141.795547 
	C1416.708618,161.253860 1409.579468,180.795761 1402.253296,200.263428 
	C1397.743164,212.248367 1393.036865,224.159515 1388.423950,236.105820 
	C1382.777222,250.729126 1377.006714,265.306305 1371.529785,279.993011 
	C1366.165894,294.377167 1361.135864,308.885529 1355.892090,323.315002 
	C1353.820435,329.015442 1353.737915,328.995544 1359.626343,328.998016 
	C1374.122681,329.004089 1388.625854,328.744873 1403.111450,329.138885 
	C1408.157715,329.276184 1410.628662,327.637360 1411.637207,322.896149 
	C1412.201416,320.243805 1413.186646,317.678528 1414.022095,315.086823 
	C1417.999268,302.749420 1422.114990,290.454346 1425.883667,278.053680 
	C1426.769409,275.139252 1428.091309,273.973145 1431.005249,273.978271 
	C1453.488159,274.017822 1475.971069,274.000031 1498.665649,274.000031 
	C1499.952637,278.406586 1501.202515,282.686035 1502.958374,287.627594 
M66.563118,226.918320 
	C66.327850,227.154236 65.992165,227.347641 65.871758,227.632172 
	C60.581886,240.132629 55.191921,252.593613 50.164204,265.199036 
	C49.395660,267.125946 49.618324,270.085632 50.584526,271.942078 
	C53.043335,276.666443 56.109692,281.085052 59.064419,285.538757 
	C66.664131,296.993835 74.375465,308.374908 81.963181,319.837860 
	C86.868340,327.248230 91.634186,334.750885 97.344933,343.575867 
	C99.897736,337.760590 101.981918,333.208221 103.906937,328.589569 
	C108.904007,316.600128 113.805847,304.570984 118.792244,292.577026 
	C125.517395,276.400787 132.266068,260.234222 139.041702,244.079056 
	C146.207581,226.993454 153.510712,209.964417 160.523163,192.816330 
	C161.828064,189.625381 163.562271,188.909012 166.778549,188.924774 
	C193.771805,189.057175 220.766129,189.032944 247.759567,188.923126 
	C249.484634,188.916107 251.928513,188.332245 252.813095,187.121658 
	C259.713562,177.678253 266.317932,168.018326 273.005768,158.419724 
	C281.371735,146.412598 289.750793,134.414474 298.072754,122.376869 
	C299.575317,120.203415 300.829651,117.858345 302.556213,115.000633 
	C276.562012,115.000633 251.575165,115.000595 226.588318,115.000633 
	C190.263184,115.000702 153.937973,114.972183 117.613190,115.084190 
	C115.766541,115.089882 112.801003,115.804321 112.251350,117.035049 
	C106.269157,130.429932 100.669449,143.995544 94.957817,157.511368 
	C89.797424,169.722809 84.512497,181.883209 79.496468,194.153595 
	C75.153831,204.776733 71.111481,215.522644 66.563118,226.918320 
M1686.402222,240.001602 
	C1695.170532,237.011063 1704.485718,235.067596 1712.602417,230.829239 
	C1734.949219,219.160431 1745.717896,199.700989 1746.941406,174.844742 
	C1747.448486,164.540756 1746.008911,154.359039 1742.790649,144.532684 
	C1739.864624,135.598495 1735.027344,127.512848 1727.825562,121.645561 
	C1721.673340,116.633316 1714.686279,111.879875 1707.270630,109.362610 
	C1695.929810,105.512909 1683.986938,101.936974 1672.148682,101.363487 
	C1647.386719,100.163940 1622.526001,100.996582 1597.705933,101.002258 
	C1591.001953,101.003792 1591.000366,101.016457 1591.000366,107.457336 
	C1590.999878,176.753708 1591.000000,246.050064 1591.000000,315.346436 
	C1591.000000,329.000000 1591.000000,329.000000 1604.884277,329.000000 
	C1618.820312,329.000000 1632.756348,329.000000 1647.070557,329.000000 
	C1647.070557,300.124084 1647.070557,271.725677 1647.070557,242.000000 
	C1655.819336,242.000000 1664.208008,242.211060 1672.578491,241.913010 
	C1676.911377,241.758713 1681.212280,240.701996 1686.402222,240.001602 
M528.094910,214.458054 
	C532.531067,213.576828 536.947021,212.116837 541.408569,211.960693 
	C547.000488,211.764999 552.804443,211.914856 558.203613,213.215775 
	C567.017090,215.339417 572.996765,221.743790 577.495667,229.269958 
	C579.264832,232.229553 580.839172,232.335571 583.390137,230.954697 
	C588.376160,228.255676 593.415100,225.652878 598.373230,222.904053 
	C604.281311,219.628586 610.127563,216.241638 616.893311,212.395493 
	C612.753662,206.480560 609.348206,200.745575 605.100586,195.722778 
	C595.669067,184.570038 582.946228,177.988983 569.080750,175.404144 
	C556.537964,173.065903 543.349976,172.476715 530.609741,173.390991 
	C517.871277,174.305130 505.718933,179.047897 494.564972,185.785645 
	C481.551086,193.646866 471.643982,204.531952 465.255280,218.070282 
	C459.636108,229.977905 457.410248,242.804962 457.831787,256.263336 
	C458.418823,275.006317 465.101624,291.130249 477.147888,304.925568 
	C492.491333,322.496796 512.973999,330.651581 535.609985,332.805084 
	C553.768005,334.532532 571.562500,331.983215 588.005981,323.031067 
	C600.807068,316.061951 610.067749,305.988251 616.239075,292.665405 
	C605.018250,286.549835 594.057190,280.544769 583.059082,274.608398 
	C580.899719,273.442841 579.574890,274.030090 577.797119,276.170166 
	C573.971802,280.775177 569.775269,285.262756 565.022217,288.863159 
	C557.194641,294.792480 547.679138,294.796539 538.501526,293.867340 
	C526.897400,292.692505 517.655518,286.776825 511.489288,276.832855 
	C505.106567,266.539734 503.892120,255.192505 506.028778,243.391693 
	C508.400177,230.294327 515.172791,220.537796 528.094910,214.458054 
M1817.482910,102.000000 
	C1802.721313,102.000000 1787.959717,102.000000 1773.291992,102.000000 
	C1773.291992,177.989059 1773.291992,253.390198 1773.291992,328.705139 
	C1791.990356,328.705139 1810.395386,328.705139 1828.707031,328.705139 
	C1828.707031,253.008804 1828.707031,177.607635 1828.707031,102.000000 
	C1825.103882,102.000000 1821.790405,102.000000 1817.482910,102.000000 
z"/>
<path fill="#7367F0" opacity="1.000000" stroke="none" 
	d="
M291.000000,84.999207 
	C225.190155,84.999153 159.880173,85.048378 94.570732,84.883156 
	C90.419571,84.872650 88.483627,86.216141 86.988472,89.856308 
	C82.254311,101.382332 77.242020,112.794128 72.337502,124.250191 
	C67.396286,135.791946 62.455318,147.333817 56.873917,160.371368 
	C53.612988,155.361252 50.794075,151.146149 48.091866,146.857498 
	C38.917297,132.296631 29.744610,117.734245 20.657841,103.118576 
	C17.769249,98.472389 14.899852,93.778786 12.536096,88.859688 
	C11.620906,86.955124 11.320525,84.023651 12.115261,82.140320 
	C21.673967,59.488518 31.516777,36.956776 41.206310,14.359765 
	C42.362595,11.663181 44.084354,10.936872 46.939442,10.938833 
	C153.067886,11.011784 259.196411,10.999852 365.324921,11.008954 
	C366.456726,11.009051 367.588562,11.134939 369.297272,11.236341 
	C368.748474,12.561356 368.505646,13.651680 367.914886,14.499616 
	C356.256958,31.232319 344.545258,47.927532 332.875977,64.652336 
	C328.879547,70.380165 325.157990,76.313599 320.901093,81.837326 
	C319.657501,83.451019 317.035950,84.767403 314.985352,84.858788 
	C307.170319,85.207069 299.330536,84.999260 291.000000,84.999207 
z"/>
<path fill="#FFFFFF" opacity="1.000000" stroke="none" 
	d="
M1502.705444,287.296539 
	C1501.202515,282.686035 1499.952637,278.406586 1498.665649,274.000031 
	C1475.971069,274.000031 1453.488159,274.017822 1431.005249,273.978271 
	C1428.091309,273.973145 1426.769409,275.139252 1425.883667,278.053680 
	C1422.114990,290.454346 1417.999268,302.749420 1414.022095,315.086823 
	C1413.186646,317.678528 1412.201416,320.243805 1411.637207,322.896149 
	C1410.628662,327.637360 1408.157715,329.276184 1403.111450,329.138885 
	C1388.625854,328.744873 1374.122681,329.004089 1359.626343,328.998016 
	C1353.737915,328.995544 1353.820435,329.015442 1355.892090,323.315002 
	C1361.135864,308.885529 1366.165894,294.377167 1371.529785,279.993011 
	C1377.006714,265.306305 1382.777222,250.729126 1388.423950,236.105820 
	C1393.036865,224.159515 1397.743164,212.248367 1402.253296,200.263428 
	C1409.579468,180.795761 1416.708618,161.253860 1424.059326,141.795547 
	C1428.236694,130.738007 1433.482300,120.011925 1436.726807,108.700546 
	C1438.738647,101.686470 1442.721802,101.899498 1447.993042,101.952835 
	C1461.811768,102.092636 1475.632812,102.000000 1489.459595,102.000000 
	C1500.926636,132.894180 1512.434448,163.583359 1523.697388,194.362183 
	C1530.409546,212.704712 1536.599731,231.237976 1543.280029,249.592560 
	C1548.800293,264.760284 1554.789307,279.756775 1560.390625,294.895752 
	C1564.101807,304.925751 1567.315308,315.142059 1571.134766,325.128357 
	C1572.364258,328.342682 1571.439697,328.995514 1568.634033,328.996521 
	C1551.971558,329.002533 1535.307373,329.106964 1518.649780,328.823730 
	C1517.085693,328.797150 1514.693115,326.584717 1514.160889,324.916290 
	C1510.216553,312.553772 1506.646240,300.071930 1502.705444,287.296539 
M1482.907227,232.983414 
	C1483.390137,231.582870 1484.572876,229.982773 1484.239868,228.814774 
	C1482.356323,222.207367 1480.058960,215.719391 1477.996704,209.161072 
	C1473.966187,196.343246 1470.036621,183.493591 1465.972168,170.686630 
	C1465.148071,168.090012 1463.912476,165.623993 1462.863281,163.089859 
	C1455.323975,186.272079 1447.922485,209.030624 1440.127441,232.998962 
	C1454.245239,232.998962 1468.123169,232.998962 1482.907227,232.983414 
z"/>
<path fill="#7367F0" opacity="1.000000" stroke="none" 
	d="
M66.749756,226.566299 
	C71.111481,215.522644 75.153831,204.776733 79.496468,194.153595 
	C84.512497,181.883209 89.797424,169.722809 94.957817,157.511368 
	C100.669449,143.995544 106.269157,130.429932 112.251350,117.035049 
	C112.801003,115.804321 115.766541,115.089882 117.613190,115.084190 
	C153.937973,114.972183 190.263184,115.000702 226.588318,115.000633 
	C251.575165,115.000595 276.562012,115.000633 302.556213,115.000633 
	C300.829651,117.858345 299.575317,120.203415 298.072754,122.376869 
	C289.750793,134.414474 281.371735,146.412598 273.005768,158.419724 
	C266.317932,168.018326 259.713562,177.678253 252.813095,187.121658 
	C251.928513,188.332245 249.484634,188.916107 247.759567,188.923126 
	C220.766129,189.032944 193.771805,189.057175 166.778549,188.924774 
	C163.562271,188.909012 161.828064,189.625381 160.523163,192.816330 
	C153.510712,209.964417 146.207581,226.993454 139.041702,244.079056 
	C132.266068,260.234222 125.517395,276.400787 118.792244,292.577026 
	C113.805847,304.570984 108.904007,316.600128 103.906937,328.589569 
	C101.981918,333.208221 99.897736,337.760590 97.344933,343.575867 
	C91.634186,334.750885 86.868340,327.248230 81.963181,319.837860 
	C74.375465,308.374908 66.664131,296.993835 59.064419,285.538757 
	C56.109692,281.085052 53.043335,276.666443 50.584526,271.942078 
	C49.618324,270.085632 49.395660,267.125946 50.164204,265.199036 
	C55.191921,252.593613 60.581886,240.132629 65.871758,227.632172 
	C65.992165,227.347641 66.327850,227.154236 66.749756,226.566299 
z"/>
<path fill="#FFFFFF" opacity="1.000000" stroke="none" 
	d="
M1685.964844,240.027283 
	C1681.212280,240.701996 1676.911377,241.758713 1672.578491,241.913010 
	C1664.208008,242.211060 1655.819336,242.000000 1647.070557,242.000000 
	C1647.070557,271.725677 1647.070557,300.124084 1647.070557,329.000000 
	C1632.756348,329.000000 1618.820312,329.000000 1604.884277,329.000000 
	C1591.000000,329.000000 1591.000000,329.000000 1591.000000,315.346436 
	C1591.000000,246.050064 1590.999878,176.753708 1591.000366,107.457336 
	C1591.000366,101.016457 1591.001953,101.003792 1597.705933,101.002258 
	C1622.526001,100.996582 1647.386719,100.163940 1672.148682,101.363487 
	C1683.986938,101.936974 1695.929810,105.512909 1707.270630,109.362610 
	C1714.686279,111.879875 1721.673340,116.633316 1727.825562,121.645561 
	C1735.027344,127.512848 1739.864624,135.598495 1742.790649,144.532684 
	C1746.008911,154.359039 1747.448486,164.540756 1746.941406,174.844742 
	C1745.717896,199.700989 1734.949219,219.160431 1712.602417,230.829239 
	C1704.485718,235.067596 1695.170532,237.011063 1685.964844,240.027283 
M1654.582397,205.000000 
	C1656.246460,205.000000 1657.912354,205.052414 1659.574097,204.991470 
	C1670.187378,204.602264 1681.407104,199.359467 1685.439941,187.475662 
	C1688.361206,178.867554 1688.886841,170.434006 1686.718872,162.124283 
	C1685.306030,156.708313 1682.015259,151.427216 1678.425537,147.012848 
	C1672.192139,139.347763 1663.139771,138.803772 1653.896362,138.872375 
	C1648.186646,138.914749 1646.848511,140.688797 1646.912354,145.688004 
	C1647.137573,163.323700 1646.999512,180.964035 1647.000366,198.602600 
	C1647.000610,204.992920 1647.001953,204.992920 1654.582397,205.000000 
z"/>
<path fill="#7367F0" opacity="1.000000" stroke="none" 
	d="
M1249.969238,237.881226 
	C1250.271240,223.736526 1241.841309,213.321426 1225.808838,210.913040 
	C1205.692993,207.891266 1187.767212,213.091721 1170.315430,224.181747 
	C1167.778320,219.567978 1165.094604,214.881348 1162.598999,210.096497 
	C1159.900513,204.922653 1157.468140,199.609390 1154.738403,194.452896 
	C1153.496582,192.107208 1154.257202,191.231354 1156.318359,189.816467 
	C1168.038452,181.771240 1181.215332,177.647278 1194.954834,175.031189 
	C1209.808838,172.202850 1224.754883,172.255280 1239.746094,173.964325 
	C1251.039795,175.251862 1261.570068,178.799881 1271.175781,184.752457 
	C1285.733521,193.773682 1292.778687,207.774216 1295.888916,224.031082 
	C1296.746094,228.511261 1296.939087,233.171875 1296.953613,237.751221 
	C1297.045044,266.566254 1296.999878,295.381744 1296.999756,324.197083 
	C1296.999756,325.983276 1296.999756,327.769440 1296.999756,329.773865 
	C1282.605835,329.773865 1268.670898,329.773865 1254.265137,329.773865 
	C1254.265137,324.455353 1254.265137,319.061798 1254.265137,313.350189 
	C1250.478760,316.836365 1247.543213,320.727509 1243.645508,322.862061 
	C1237.044678,326.476929 1230.086426,330.275177 1222.830078,331.678833 
	C1208.732300,334.405853 1194.480835,333.906006 1180.613159,329.032928 
	C1163.680786,323.082916 1151.560791,311.842255 1148.490112,294.258667 
	C1144.937134,273.912781 1151.237305,254.832199 1175.270752,244.821396 
	C1187.514526,239.721451 1200.297363,238.984940 1213.927246,238.392258 
	C1225.757202,238.798187 1236.822144,238.908249 1247.887085,238.930542 
	C1248.580444,238.931931 1249.275146,238.246902 1249.969238,237.881226 
M1249.445923,266.287262 
	C1241.679810,266.191498 1233.913086,266.001678 1226.147705,266.043549 
	C1222.764648,266.061768 1219.384277,266.555267 1215.125732,266.983856 
	C1211.484619,267.643188 1207.751465,267.989075 1204.221680,269.027039 
	C1196.866699,271.189880 1194.166626,275.440277 1194.029907,284.158539 
	C1193.925537,290.825348 1197.541870,295.382477 1203.728027,298.108246 
	C1214.916260,303.037811 1225.940552,301.644684 1236.202026,296.559052 
	C1240.944336,294.208801 1244.459473,289.020050 1247.988281,284.677124 
	C1252.298096,279.372803 1249.387329,272.928558 1249.445923,266.287262 
z"/>
<path fill="#7367F0" opacity="1.000000" stroke="none" 
	d="
M385.973419,237.891602 
	C387.370361,224.975861 377.644135,213.642670 363.675507,211.044373 
	C350.999939,208.686600 338.524658,209.584396 326.502716,214.243271 
	C319.786560,216.846008 313.338623,220.140762 305.751373,223.586136 
	C300.590820,213.801300 294.972473,203.148422 288.712097,191.278259 
	C296.231445,187.551514 303.561615,182.864334 311.566559,180.218735 
	C321.503693,176.934525 331.898346,174.360748 342.281921,173.291351 
	C352.588898,172.229813 363.143494,173.125381 373.560089,173.697540 
	C384.575684,174.302597 394.921143,177.802841 404.413208,183.308136 
	C415.257446,189.597687 423.346069,198.457611 427.811951,210.435852 
	C431.695068,220.851013 433.153992,231.538147 433.068298,242.632889 
	C432.858429,269.796204 432.999847,296.962250 432.999939,324.127197 
	C432.999939,325.920349 432.999969,327.713531 432.999969,329.750427 
	C418.333130,329.750427 404.078247,329.750427 389.307312,329.750427 
	C389.307312,324.966400 389.307312,320.247650 389.307312,314.045258 
	C382.242889,322.314758 374.614471,327.380127 365.503815,329.993500 
	C349.651917,334.540558 333.793671,334.371796 318.058502,329.515930 
	C302.947174,324.852570 291.347595,315.783661 286.111328,300.550873 
	C278.651184,278.848450 287.362915,253.442490 311.268646,244.808945 
	C320.118561,241.612778 328.913086,239.107346 338.353851,238.955307 
	C341.959106,238.897232 345.556305,238.340118 349.918488,238.351318 
	C361.747467,238.787781 372.815125,238.903259 383.882996,238.931534 
	C384.578888,238.933319 385.276581,238.254028 385.973419,237.891602 
M351.220978,267.011658 
	C348.462402,267.350098 345.698456,267.649963 342.946259,268.034180 
	C334.393585,269.228027 330.113708,275.423065 329.108887,282.308929 
	C328.119568,289.088257 334.073975,297.139008 341.070435,298.906281 
	C347.878815,300.626068 354.650421,301.816467 361.894073,300.183502 
	C368.900421,298.604034 374.941925,295.825165 380.105194,290.967560 
	C385.717651,285.687317 386.457031,279.055542 386.182770,271.732941 
	C386.004395,266.970612 384.371277,265.477570 379.079224,266.037201 
	C375.276398,266.024811 371.469879,265.901062 367.671631,266.027100 
	C362.478607,266.199371 357.291870,266.561707 351.220978,267.011658 
z"/>
<path fill="#7367F0" opacity="1.000000" stroke="none" 
	d="
M1131.008545,174.843811 
	C1131.671143,175.886978 1132.883423,176.917557 1132.907715,177.975342 
	C1133.075317,185.288834 1133.729370,192.713135 1132.702393,199.883423 
	C1132.143066,203.788528 1129.045166,207.645477 1126.319580,210.871216 
	C1113.380127,226.185394 1100.123291,241.230850 1087.080566,256.458557 
	C1076.724487,268.549530 1066.516235,280.767334 1056.223267,292.912567 
	C1056.037842,293.131256 1055.612305,293.146301 1055.427002,293.897705 
	C1056.854370,294.692688 1058.153442,294.979462 1059.452637,294.980255 
	C1084.335327,294.995453 1109.218018,294.976990 1134.100708,294.965485 
	C1134.400269,296.329559 1134.949707,297.691833 1134.959717,299.057983 
	C1135.033325,309.184723 1134.999634,319.312256 1134.999634,329.718201 
	C1088.282104,329.718201 1041.913940,329.718201 995.009644,329.718201 
	C995.009644,321.031677 994.933655,312.425995 995.092834,303.824615 
	C995.116211,302.559082 996.035706,301.130035 996.910706,300.087311 
	C1010.272766,284.164642 1023.634644,268.240997 1037.125488,252.427444 
	C1047.885132,239.815186 1058.829346,227.360291 1069.656494,214.805344 
	C1070.466553,213.866119 1070.995239,212.684265 1071.994019,211.064926 
	C1046.853271,211.064926 1022.314026,211.064926 997.001404,211.064926 
	C997.001404,205.281830 997.001343,199.858871 997.001404,194.435898 
	C997.001404,188.939835 997.125610,183.439713 996.946045,177.949524 
	C996.863525,175.426895 997.867676,174.691757 1001.020996,174.969864 
	C1044.949341,174.922714 1087.979004,174.883270 1131.008545,174.843811 
z"/>
<path fill="#7367F0" opacity="1.000000" stroke="none" 
	d="
M527.792358,214.707062 
	C515.172791,220.537796 508.400177,230.294327 506.028778,243.391693 
	C503.892120,255.192505 505.106567,266.539734 511.489288,276.832855 
	C517.655518,286.776825 526.897400,292.692505 538.501526,293.867340 
	C547.679138,294.796539 557.194641,294.792480 565.022217,288.863159 
	C569.775269,285.262756 573.971802,280.775177 577.797119,276.170166 
	C579.574890,274.030090 580.899719,273.442841 583.059082,274.608398 
	C594.057190,280.544769 605.018250,286.549835 616.239075,292.665405 
	C610.067749,305.988251 600.807068,316.061951 588.005981,323.031067 
	C571.562500,331.983215 553.768005,334.532532 535.609985,332.805084 
	C512.973999,330.651581 492.491333,322.496796 477.147888,304.925568 
	C465.101624,291.130249 458.418823,275.006317 457.831787,256.263336 
	C457.410248,242.804962 459.636108,229.977905 465.255280,218.070282 
	C471.643982,204.531952 481.551086,193.646866 494.564972,185.785645 
	C505.718933,179.047897 517.871277,174.305130 530.609741,173.390991 
	C543.349976,172.476715 556.537964,173.065903 569.080750,175.404144 
	C582.946228,177.988983 595.669067,184.570038 605.100586,195.722778 
	C609.348206,200.745575 612.753662,206.480560 616.893311,212.395493 
	C610.127563,216.241638 604.281311,219.628586 598.373230,222.904053 
	C593.415100,225.652878 588.376160,228.255676 583.390137,230.954697 
	C580.839172,232.335571 579.264832,232.229553 577.495667,229.269958 
	C572.996765,221.743790 567.017090,215.339417 558.203613,213.215775 
	C552.804443,211.914856 547.000488,211.764999 541.408569,211.960693 
	C536.947021,212.116837 532.531067,213.576828 527.792358,214.707062 
z"/>
<path fill="#FFFFFF" opacity="1.000000" stroke="none" 
	d="
M1817.979858,102.000000 
	C1821.790405,102.000000 1825.103882,102.000000 1828.707031,102.000000 
	C1828.707031,177.607635 1828.707031,253.008804 1828.707031,328.705139 
	C1810.395386,328.705139 1791.990356,328.705139 1773.291992,328.705139 
	C1773.291992,253.390198 1773.291992,177.989059 1773.291992,102.000000 
	C1787.959717,102.000000 1802.721313,102.000000 1817.979858,102.000000 
z"/>
<path fill="#7367F0" opacity="1.000000" stroke="none" 
	d="
M689.026489,140.847046 
	C689.350403,142.370941 689.943848,143.892868 689.955078,145.419067 
	C690.035706,156.395721 689.998169,167.373230 689.998169,178.847137 
	C702.642334,178.847137 715.041260,178.847137 727.793396,178.847137 
	C727.793396,191.102722 727.793396,202.865540 727.064941,214.471619 
	C714.934875,214.216064 703.533325,214.097916 692.131470,214.065720 
	C691.437439,214.063766 690.741455,214.743454 690.046387,215.105972 
	C690.030212,236.582794 689.823242,258.061981 690.090576,279.535278 
	C690.199524,288.288086 697.214050,295.613098 706.028198,294.989380 
	C709.776184,294.724152 713.616272,294.759674 717.230042,293.890869 
	C720.603394,293.079803 723.732239,291.251587 727.260925,289.746429 
	C731.490234,300.777588 735.632324,311.581268 739.867737,322.628296 
	C732.760681,327.673828 724.537964,330.650940 715.794434,331.952606 
	C703.361206,333.803589 690.914124,333.954529 678.769836,329.973358 
	C664.144714,325.178955 653.060181,316.555237 647.205505,301.719513 
	C643.874329,293.278259 643.400513,284.482391 643.157654,275.778625 
	C642.642273,257.311523 643.000671,238.820023 643.000732,220.338531 
	C643.000793,218.718506 643.000793,217.098465 643.000793,214.999191 
	C636.448486,214.999191 630.328857,214.853485 624.220520,215.053314 
	C620.497986,215.175110 618.799316,214.171555 618.904114,210.025742 
	C619.159973,199.899094 618.987549,189.761642 618.987549,179.000427 
	C625.359070,179.000427 631.470459,178.721909 637.542358,179.091751 
	C642.101013,179.369415 643.213135,177.623154 643.087585,173.354248 
	C642.808716,163.871933 642.918518,154.374298 643.093750,144.887054 
	C643.118042,143.573624 644.413269,142.283661 646.020386,140.973572 
	C660.955872,140.925217 674.991211,140.886139 689.026489,140.847046 
z"/>
<path fill="#7366EF" opacity="1.000000" stroke="none" 
	d="
M841.843750,117.990158 
	C842.700378,117.660515 843.555786,117.047058 844.413757,117.043503 
	C858.713135,116.984161 873.012756,117.001190 887.661743,117.001190 
	C887.661743,187.932861 887.661743,258.702271 887.661743,329.977722 
	C872.763306,329.977722 857.846863,329.977722 842.465820,329.448547 
	C842.000854,264.771790 842.004578,200.624207 841.993103,136.476624 
	C841.992004,130.314453 841.895813,124.152306 841.843750,117.990158 
z"/>
<path fill="#7368EF" opacity="1.000000" stroke="none" 
	d="
M803.010437,174.844971 
	C804.006714,175.720200 805.396545,176.419327 805.889099,177.519943 
	C806.385315,178.628799 805.986084,180.136536 805.986084,181.469498 
	C805.985352,228.957809 805.985413,276.446136 805.985413,323.934448 
	C805.985413,325.748505 805.985474,327.562531 805.985474,329.687561 
	C790.381226,329.687561 774.988342,329.687561 759.264526,329.687561 
	C759.177002,328.431488 759.010925,327.156586 759.010559,325.881622 
	C758.997498,277.060303 758.996338,228.238998 759.009888,179.417679 
	C759.010498,177.265717 758.143066,174.397568 763.017456,174.970459 
	C776.949097,174.923889 789.979797,174.884430 803.010437,174.844971 
z"/>
<path fill="#7367F0" opacity="1.000000" stroke="none" 
	d="
M967.008606,174.843658 
	C968.004822,175.728455 969.059509,176.559250 969.959290,177.533112 
	C970.208679,177.803024 969.998779,178.497787 969.998779,178.997650 
	C969.998779,228.150284 969.998657,277.302917 969.998596,326.455566 
	C969.998596,327.430359 969.998596,328.405151 969.998596,329.975464 
	C954.786438,329.975464 939.858459,329.975464 924.466187,329.446594 
	C924.001221,305.760834 924.020203,282.603882 923.994995,259.447021 
	C923.964661,231.628067 923.896667,203.809128 923.844971,175.990173 
	C925.296875,175.652267 926.748779,175.314362 929.060181,174.969513 
	C942.282593,174.922928 954.645569,174.883301 967.008606,174.843658 
z"/>
<path fill="#0000FF" opacity="1.000000" stroke="none" 
	d="
M841.501404,118.242706 
	C841.895813,124.152306 841.992004,130.314453 841.993103,136.476624 
	C842.004578,200.624207 842.000854,264.771790 842.002319,329.376831 
	C841.668884,328.688904 841.042542,327.543671 841.041809,326.398041 
	C840.997864,257.593231 841.004944,188.788406 841.014038,119.983574 
	C841.014099,119.487465 841.108643,118.991371 841.501404,118.242706 
z"/>
<path fill="#0000FF" opacity="1.000000" stroke="none" 
	d="
M923.502197,176.242432 
	C923.896667,203.809128 923.964661,231.628067 923.994995,259.447021 
	C924.020203,282.603882 924.001221,305.760834 924.002563,329.375031 
	C923.668945,328.687500 923.043091,327.542938 923.041992,326.397766 
	C922.995911,276.926086 923.004700,227.454391 923.014038,177.982681 
	C923.014160,177.486649 923.108948,176.990662 923.502197,176.242432 
z"/>
<path fill="#0000FF" opacity="1.000000" stroke="none" 
	d="
M1130.756348,174.501282 
	C1087.979004,174.883270 1044.949341,174.922714 1001.455444,174.902710 
	C1001.704712,174.563629 1002.418396,174.039124 1003.131958,174.039337 
	C1045.589355,174.051682 1088.046753,174.107269 1130.756348,174.501282 
z"/>
<path fill="#8080FF" opacity="1.000000" stroke="none" 
	d="
M1133.871338,294.590240 
	C1109.218018,294.976990 1084.335327,294.995453 1059.452637,294.980255 
	C1058.153442,294.979462 1056.854370,294.692688 1055.289795,294.213562 
	C1079.412231,293.925385 1103.799927,293.958252 1128.187744,294.008881 
	C1130.005981,294.012665 1131.823853,294.143341 1133.871338,294.590240 
z"/>
<path fill="#0000FF" opacity="1.000000" stroke="none" 
	d="
M688.770874,140.505676 
	C674.991211,140.886139 660.955872,140.925217 646.456299,140.904724 
	C646.703735,140.564911 647.415527,140.040390 648.127258,140.040619 
	C661.589905,140.044830 675.052551,140.111038 688.770874,140.505676 
z"/>
<path fill="#0000FF" opacity="1.000000" stroke="none" 
	d="
M802.758057,174.502335 
	C789.979797,174.884430 776.949097,174.923889 763.453979,174.903778 
	C763.701477,174.564301 764.413513,174.040634 765.125366,174.040726 
	C777.585449,174.042297 790.045593,174.107971 802.758057,174.502335 
z"/>
<path fill="#0000FF" opacity="1.000000" stroke="none" 
	d="
M966.756287,174.501160 
	C954.645569,174.883301 942.282593,174.922928 929.455200,174.903214 
	C930.367065,174.562576 931.742981,174.039978 933.119629,174.038116 
	C944.247620,174.023026 955.375854,174.105774 966.756287,174.501160 
z"/>
<path fill="#5555FF" opacity="1.000000" stroke="none" 
	d="
M690.509521,215.060638 
	C690.741455,214.743454 691.437439,214.063766 692.131470,214.065720 
	C703.533325,214.097916 714.934875,214.216064 726.643860,214.587219 
	C714.958313,214.911469 702.965454,214.963394 690.509521,215.060638 
z"/>
<path fill="#8080FF" opacity="1.000000" stroke="none" 
	d="
M1249.505249,237.933289 
	C1249.275146,238.246902 1248.580444,238.931931 1247.887085,238.930542 
	C1236.822144,238.908249 1225.757202,238.798187 1214.377075,238.447571 
	C1225.721558,238.119766 1237.381470,238.052551 1249.505249,237.933289 
z"/>
<path fill="#8080FF" opacity="1.000000" stroke="none" 
	d="
M385.508728,237.939102 
	C385.276581,238.254028 384.578888,238.933319 383.882996,238.931534 
	C372.815125,238.903259 361.747467,238.787781 350.371826,238.422485 
	C361.723938,238.097366 373.383972,238.041992 385.508728,237.939102 
z"/>
<path fill="#000000" opacity="1.000000" stroke="none" 
	d="
M1482.454102,232.991180 
	C1468.123169,232.998962 1454.245239,232.998962 1440.127441,232.998962 
	C1447.922485,209.030624 1455.323975,186.272079 1462.863281,163.089859 
	C1463.912476,165.623993 1465.148071,168.090012 1465.972168,170.686630 
	C1470.036621,183.493591 1473.966187,196.343246 1477.996704,209.161072 
	C1480.058960,215.719391 1482.356323,222.207367 1484.239868,228.814774 
	C1484.572876,229.982773 1483.390137,231.582870 1482.454102,232.991180 
z"/>
<path fill="#000000" opacity="1.000000" stroke="none" 
	d="
M1654.108887,205.000000 
	C1647.001953,204.992920 1647.000610,204.992920 1647.000366,198.602600 
	C1646.999512,180.964035 1647.137573,163.323700 1646.912354,145.688004 
	C1646.848511,140.688797 1648.186646,138.914749 1653.896362,138.872375 
	C1663.139771,138.803772 1672.192139,139.347763 1678.425537,147.012848 
	C1682.015259,151.427216 1685.306030,156.708313 1686.718872,162.124283 
	C1688.886841,170.434006 1688.361206,178.867554 1685.439941,187.475662 
	C1681.407104,199.359467 1670.187378,204.602264 1659.574097,204.991470 
	C1657.912354,205.052414 1656.246460,205.000000 1654.108887,205.000000 
z"/>
<path fill="#000000" opacity="1.000000" stroke="none" 
	d="
M1249.869507,267.004761 
	C1249.387329,272.928558 1252.298096,279.372803 1247.988281,284.677124 
	C1244.459473,289.020050 1240.944336,294.208801 1236.202026,296.559052 
	C1225.940552,301.644684 1214.916260,303.037811 1203.728027,298.108246 
	C1197.541870,295.382477 1193.925537,290.825348 1194.029907,284.158539 
	C1194.166626,275.440277 1196.866699,271.189880 1204.221680,269.027039 
	C1207.751465,267.989075 1211.484619,267.643188 1216.028320,266.978210 
	C1227.910522,266.983276 1238.890015,266.994019 1249.869507,267.004761 
z"/>
<path fill="#0000FF" opacity="1.000000" stroke="none" 
	d="
M1249.657715,266.645996 
	C1238.890015,266.994019 1227.910522,266.983276 1216.466797,266.902740 
	C1219.384277,266.555267 1222.764648,266.061768 1226.147705,266.043549 
	C1233.913086,266.001678 1241.679810,266.191498 1249.657715,266.645996 
z"/>
<path fill="#000000" opacity="1.000000" stroke="none" 
	d="
M380.008362,266.155731 
	C384.371277,265.477570 386.004395,266.970612 386.182770,271.732941 
	C386.457031,279.055542 385.717651,285.687317 380.105194,290.967560 
	C374.941925,295.825165 368.900421,298.604034 361.894073,300.183502 
	C354.650421,301.816467 347.878815,300.626068 341.070435,298.906281 
	C334.073975,297.139008 328.119568,289.088257 329.108887,282.308929 
	C330.113708,275.423065 334.393585,269.228027 342.946259,268.034180 
	C345.698456,267.649963 348.462402,267.350098 352.117523,266.993378 
	C357.158264,266.983398 361.306122,267.104034 365.445740,266.970734 
	C370.303650,266.814301 375.154480,266.437164 380.008362,266.155731 
z"/>
<path fill="#0000FF" opacity="1.000000" stroke="none" 
	d="
M379.543793,266.096466 
	C375.154480,266.437164 370.303650,266.814301 365.445740,266.970734 
	C361.306122,267.104034 357.158264,266.983398 352.558258,266.908813 
	C357.291870,266.561707 362.478607,266.199371 367.671631,266.027100 
	C371.469879,265.901062 375.276398,266.024811 379.543793,266.096466 
z"/>
</svg>