<?xml version="1.0" encoding="UTF-8"?>
<svg version="1.1" xmlns="http://www.w3.org/2000/svg" width="1166" height="214">
<path d="M0 0 C66.99 0 133.98 0 203 0 C201.60301575 3.49246064 200.74517963 5.63053143 198.671875 8.50390625 C198.20845703 9.15262695 197.74503906 9.80134766 197.26757812 10.46972656 C196.51637695 11.50564941 196.51637695 11.50564941 195.75 12.5625 C194.67127528 14.06858105 193.59317765 15.5751114 192.515625 17.08203125 C191.94650391 17.87561035 191.37738281 18.66918945 190.79101562 19.48681641 C187.0551967 24.72898107 183.39334358 30.02357485 179.72167969 35.31079102 C179.16383789 36.11057373 178.60599609 36.91035645 178.03125 37.734375 C177.29745117 38.78963379 177.29745117 38.78963379 176.54882812 39.86621094 C175.7821582 40.92243652 175.7821582 40.92243652 175 42 C174.14491915 43.28491223 174.14491915 43.28491223 173.27256393 44.59578228 C171 47 171 47 168.27452469 47.61523914 C167.22368069 47.61063018 166.17283669 47.60602121 165.09014893 47.60127258 C163.88142624 47.6081459 162.67270355 47.61501923 161.42735291 47.62210083 C160.09121082 47.6044064 158.75507502 47.58623236 157.41894531 47.56762695 C156.00950674 47.56621632 154.60006449 47.56700876 153.19062805 47.56983948 C149.3662848 47.5712745 145.54272512 47.54187187 141.71856403 47.50696969 C137.72141298 47.47571998 133.7242441 47.47277656 129.72698975 47.46684265 C122.15855743 47.45130005 114.59048608 47.41026621 107.02221274 47.3600952 C98.40564815 47.30421448 89.78906634 47.27671848 81.17236567 47.25161803 C63.44803909 47.19935053 45.72404857 47.11140039 28 47 C27.79836715 47.61198525 27.59673429 48.22397051 27.38899136 48.85450077 C27.1221658 49.6604893 26.85534025 50.46647783 26.58042908 51.29689026 C26.31692122 52.09450051 26.05341337 52.89211077 25.78192043 53.71389103 C24.79289765 56.60550733 23.64586253 59.40660387 22.44140625 62.21484375 C21.97283203 63.31376953 21.50425781 64.41269531 21.02148438 65.54492188 C20.54001953 66.66447266 20.05855469 67.78402344 19.5625 68.9375 C16.28593834 76.59165417 13.0464426 84.25089215 10 92 C6.31694525 90.5453523 4.95573469 88.82144 2.96875 85.44140625 C2.4106665 84.5066748 1.85258301 83.57194336 1.27758789 82.60888672 C0.39768188 81.10092529 0.39768188 81.10092529 -0.5 79.5625 C-1.73893508 77.47149943 -2.97985559 75.3816741 -4.22265625 73.29296875 C-4.8480127 72.24028809 -5.47336914 71.18760742 -6.11767578 70.10302734 C-7.89686671 67.17001609 -9.73637955 64.29184842 -11.62109375 61.42578125 C-12.18054688 60.57105225 -12.74 59.71632324 -13.31640625 58.83569336 C-14.37675642 57.22616484 -15.44798601 55.62373788 -16.53125 54.02954102 C-17.00433594 53.30565186 -17.47742188 52.5817627 -17.96484375 51.8359375 C-18.3837085 51.21251465 -18.80257324 50.5890918 -19.23413086 49.94677734 C-21.17785825 45.00597969 -17.7386522 39.68854364 -15.76171875 35.13671875 C-15.2786602 34.01049858 -15.2786602 34.01049858 -14.7858429 32.86152649 C-14.10471521 31.27624682 -13.4212483 29.69197043 -12.7355957 28.10864258 C-11.69647169 25.70822496 -10.66501288 23.30462944 -9.63476562 20.90039062 C-8.96920309 19.35397158 -8.30320135 17.80774148 -7.63671875 16.26171875 C-7.33239426 15.55311203 -7.02806976 14.84450531 -6.71452332 14.11442566 C-4.62849818 9.30682416 -2.35142574 4.70285148 0 0 Z " fill="#7367EC" transform="translate(26,6)"/>
<path d="M0 0 C2.13167676 -0.01721049 4.26180128 -0.06108015 6.39306641 -0.10522461 C7.74591956 -0.11535163 9.09878593 -0.12386771 10.45166016 -0.13061523 C11.6864209 -0.14519775 12.92118164 -0.15978027 14.19335938 -0.17480469 C17.27197266 0.29516602 17.27197266 0.29516602 19.04492188 1.91308594 C20.54576846 4.82668724 21.65731695 7.73354109 22.72509766 10.83422852 C22.94609634 11.46806458 23.16709503 12.10190063 23.39479065 12.75494385 C23.86599578 14.10795464 24.33414056 15.4620345 24.79946899 16.81707764 C26.01367806 20.35143893 27.25067789 23.87780164 28.48681641 27.40454102 C28.728853 28.09655609 28.97088959 28.78857117 29.22026062 29.5015564 C31.06903679 34.76846047 33.02252161 39.98352498 35.08447266 45.17016602 C37.15301148 50.38539117 39.12346043 55.61758942 40.95947266 60.92016602 C43.90939765 69.43616379 47.09371276 77.86257343 50.27197266 86.29516602 C57.17833418 104.62547987 57.17833418 104.62547987 60.2409668 113.51269531 C61.50265352 117.16469625 62.83061811 120.78224192 64.21728516 124.38891602 C64.54817139 125.25734131 64.87905762 126.1257666 65.2199707 127.02050781 C65.86331131 128.70259033 66.51536173 130.38137637 67.17749023 132.05615234 C67.46519287 132.81178467 67.75289551 133.56741699 68.04931641 134.34594727 C68.30962646 135.01279541 68.56993652 135.67964355 68.83813477 136.36669922 C69.27197266 138.29516602 69.27197266 138.29516602 68.27197266 142.29516602 C57.05197266 142.29516602 45.83197266 142.29516602 34.27197266 142.29516602 C29.77197266 131.04516602 29.77197266 131.04516602 28.35009766 126.28735352 C28.07584961 125.37840332 27.80160156 124.46945313 27.51904297 123.53295898 C27.19000977 122.4232373 26.86097656 121.31351562 26.52197266 120.17016602 C25.44947266 116.58141602 24.37697266 112.99266602 23.27197266 109.29516602 C1.49197266 108.80016602 1.49197266 108.80016602 -20.72802734 108.29516602 C-21.71802734 111.92516602 -22.70802734 115.55516602 -23.72802734 119.29516602 C-24.88538982 123.18673161 -26.11792861 127.05263228 -27.35302734 130.92016602 C-27.66498047 131.91145508 -27.97693359 132.90274414 -28.29833984 133.92407227 C-28.59740234 134.86379883 -28.89646484 135.80352539 -29.20458984 136.77172852 C-29.47352051 137.61815918 -29.74245117 138.46458984 -30.01953125 139.33666992 C-30.72802734 141.29516602 -30.72802734 141.29516602 -31.72802734 142.29516602 C-34.24896811 142.38364344 -36.74233627 142.41043903 -39.26318359 142.39282227 C-40.39305946 142.39069984 -40.39305946 142.39069984 -41.54576111 142.38853455 C-43.96072294 142.38291977 -46.37559335 142.37036485 -48.79052734 142.35766602 C-50.42398955 142.35265292 -52.0574532 142.34808968 -53.69091797 142.34399414 C-57.70332319 142.33294555 -61.71565975 142.31567108 -65.72802734 142.29516602 C-67.086226 138.22057006 -65.92715807 136.56004047 -64.36865234 132.58422852 C-64.10903717 131.91382538 -63.849422 131.24342224 -63.5819397 130.55270386 C-62.72241053 128.33846716 -61.85007898 126.12949736 -60.97802734 123.92016602 C-60.37038933 122.36001989 -59.76379392 120.79946731 -59.15820312 119.23852539 C-57.92827017 116.0701045 -56.69440417 112.90326206 -55.45751953 109.73754883 C-53.13061421 103.77264893 -50.8645208 97.78511577 -48.60302734 91.79516602 C-47.71655723 89.45653009 -46.82982192 87.11799467 -45.94287109 84.77954102 C-44.14705548 80.04255634 -42.35316942 75.30484435 -40.56054688 70.56665039 C-23.61427397 25.78076298 -23.61427397 25.78076298 -17.60302734 10.73266602 C-17.20784912 9.74169922 -16.8126709 8.75073242 -16.40551758 7.72973633 C-12.77924798 -1.25118833 -9.26430834 0.0522143 0 0 Z M1.27197266 39.29516602 C-0.42453819 44.31030693 -2.11501977 49.32742521 -3.80004883 54.34643555 C-4.37360755 56.05206489 -4.94878373 57.75715124 -5.52563477 59.46166992 C-6.35651995 61.91776365 -7.18148768 64.37577856 -8.00537109 66.83422852 C-8.26269516 67.59071686 -8.52001923 68.3472052 -8.78514099 69.12661743 C-9.02531448 69.84691132 -9.26548798 70.5672052 -9.51293945 71.30932617 C-9.72389755 71.93553864 -9.93485565 72.5617511 -10.15220642 73.2069397 C-10.88236713 75.85488239 -11.27646144 78.58577062 -11.72802734 81.29516602 C-2.81802734 81.29516602 6.09197266 81.29516602 15.27197266 81.29516602 C8.83697266 60.50516602 8.83697266 60.50516602 2.27197266 39.29516602 C1.94197266 39.29516602 1.61197266 39.29516602 1.27197266 39.29516602 Z " fill="#000000" transform="translate(906.72802734375,61.704833984375)"/>
<path d="M0 0 C1.45556557 -0.002062 1.45556557 -0.002062 2.9405365 -0.00416565 C4.54275307 0.00122726 4.54275307 0.00122726 6.17733765 0.00672913 C7.86026665 0.00651009 7.86026665 0.00651009 9.57719421 0.00628662 C13.29988513 0.00698543 17.02252652 0.01477636 20.74520874 0.02259827 C23.32067843 0.02446256 25.89614848 0.02588641 28.47161865 0.02688599 C34.56664946 0.03031902 40.66165971 0.03820713 46.75668275 0.04823548 C53.69492596 0.05940396 60.63317 0.06490892 67.57141995 0.06993091 C81.845505 0.08038993 96.11957498 0.09798481 110.39364624 0.12025452 C110.39364624 4.22959153 110.24598211 4.83005636 108.04208374 7.96400452 C107.52694214 8.70642395 107.01180054 9.44884338 106.48104858 10.21376038 C105.91595581 11.00790344 105.35086304 11.80204651 104.76864624 12.62025452 C103.90360474 13.85884216 103.90360474 13.85884216 103.02108765 15.12245178 C101.79122729 16.88121495 100.55720617 18.63707459 99.31942749 20.39027405 C97.37546611 23.1460266 95.44530624 25.91097737 93.51864624 28.67884827 C91.11402045 32.12974274 88.70738587 35.5791655 86.29208374 39.02259827 C85.55997681 40.06661804 85.55997681 40.06661804 84.81307983 41.13172913 C84.34466675 41.7879425 83.87625366 42.44415588 83.39364624 43.12025452 C82.9824202 43.8100087 82.57119415 44.49976288 82.14750671 45.2104187 C80.39364624 47.12025452 80.39364624 47.12025452 77.90690613 47.63923645 C76.4246479 47.65256012 76.4246479 47.65256012 74.91244507 47.66615295 C73.23104179 47.6957309 73.23104179 47.6957309 71.51567078 47.72590637 C69.7014991 47.72774933 69.7014991 47.72774933 67.85067749 47.72962952 C66.61194382 47.74616577 65.37321014 47.76270203 64.09693909 47.77973938 C60.80726513 47.8201224 57.51804896 47.84341516 54.22817993 47.85847473 C50.86976335 47.8780399 47.51163509 47.92001034 44.15341187 47.96009827 C37.56689348 48.03415982 30.98048391 48.08569874 24.39364624 48.12025452 C23.9834021 49.11089905 23.57315796 50.10154358 23.15048218 51.12220764 C14.71300821 71.49416644 6.2641778 91.86143242 -2.20706177 112.21937561 C-3.09728998 114.35930506 -3.98702093 116.49944145 -4.87625122 118.63978577 C-6.12735506 121.65077803 -7.38028943 124.66100212 -8.63369751 127.67103577 C-9.00693649 128.57030289 -9.38017548 129.46957001 -9.76472473 130.39608765 C-10.11070206 131.22585617 -10.45667938 132.05562469 -10.81314087 132.91053772 C-11.26251259 133.99078972 -11.26251259 133.99078972 -11.72096252 135.09286499 C-12.6152183 137.14055276 -13.58942859 139.13101949 -14.60635376 141.12025452 C-15.59635376 141.12025452 -16.58635376 141.12025452 -17.60635376 141.12025452 C-19.23050491 138.85815406 -20.6428698 136.64180644 -22.04385376 134.24525452 C-22.93060933 132.77625377 -23.82004206 131.30886652 -24.71182251 129.84291077 C-25.1802356 129.07092346 -25.64864868 128.29893616 -26.1312561 127.5035553 C-28.60977476 123.49903707 -31.23049244 119.59164624 -33.85635376 115.68275452 C-34.3390271 114.96297424 -34.82170044 114.24319397 -35.31900024 113.50160217 C-35.79023315 112.79954651 -36.26146606 112.09749084 -36.74697876 111.37416077 C-37.2078186 110.67822815 -37.66865845 109.98229553 -38.14346313 109.26527405 C-39.16958531 107.76068303 -40.2375504 106.28418642 -41.33486938 104.83070374 C-42.17308228 103.68819153 -42.17308228 103.68819153 -43.02822876 102.52259827 C-43.54482056 101.84575989 -44.06141235 101.16892151 -44.59365845 100.47157288 C-46.56584389 95.89247018 -44.86918256 91.53974799 -43.12271118 87.11390686 C-42.49426173 85.64100695 -41.85679541 84.1719317 -41.21182251 82.70619202 C-40.86835281 81.90668625 -40.52488312 81.10718048 -40.17100525 80.28344727 C-39.05272244 77.68410505 -37.92320145 75.08980576 -36.79385376 72.49525452 C-35.62370343 69.78129577 -34.4566641 67.06601353 -33.28985596 64.35061646 C-32.50837324 62.53229583 -31.72596267 60.7143737 -30.94262695 58.89685059 C-27.587689 51.10619911 -24.32906318 43.27883923 -21.10635376 35.43275452 C-14.06157414 18.3528362 -14.06157414 18.3528362 -10.48135376 9.87025452 C-9.93124634 8.54634705 -9.93124634 8.54634705 -9.37002563 7.19569397 C-9.03293579 6.4025177 -8.69584595 5.60934143 -8.34854126 4.79212952 C-7.91324097 3.75717346 -7.91324097 3.75717346 -7.46914673 2.7013092 C-5.76315891 -0.42488693 -3.22140187 -0.00350915 0 0 Z " fill="#7267ED" transform="translate(75.60635375976563,69.87974548339844)"/>
<path d="M0 0 C1.04619507 -0.01283524 2.09239014 -0.02567047 3.17028809 -0.03889465 C4.31485474 -0.04628159 5.45942139 -0.05366852 6.63867188 -0.0612793 C7.81772095 -0.06935104 8.99677002 -0.07742279 10.21154785 -0.08573914 C12.72353636 -0.09961438 15.235544 -0.11032102 17.74755859 -0.11816406 C21.5358671 -0.13517671 25.32325648 -0.17900689 29.11132812 -0.22338867 C47.72792788 -0.34416279 66.63197338 -0.14163222 81.25585938 13.1262207 C90.45914724 23.00907624 92.66006217 34.36557769 92.41601562 47.5871582 C91.46213554 58.68356072 87.26770887 68.72135783 78.85351562 76.1730957 C66.68122501 85.25835274 53.63187281 88.32596893 38.74023438 88.2199707 C37.49222046 88.21531799 37.49222046 88.21531799 36.21899414 88.21057129 C34.18178853 88.20252776 32.14460061 88.19019922 30.10742188 88.17700195 C30.10964249 88.83876938 30.1118631 89.5005368 30.114151 90.18235779 C30.13620152 97.04360415 30.15132749 103.90484052 30.16235352 110.76611328 C30.16739558 113.32991952 30.17422902 115.89372287 30.18286133 118.45751953 C30.19493252 122.13355217 30.2006513 125.80954693 30.20507812 129.4855957 C30.21023941 130.63974472 30.2154007 131.79389374 30.22071838 132.98301697 C30.22079391 134.04404129 30.22086945 135.10506561 30.22094727 136.19824219 C30.22316788 137.13756088 30.22538849 138.07687958 30.22767639 139.04466248 C30.10742188 141.17700195 30.10742188 141.17700195 29.10742188 142.17700195 C26.59818034 142.27787407 24.11705804 142.31672228 21.60742188 142.30981445 C20.85654297 142.31077118 20.10566406 142.31172791 19.33203125 142.31271362 C17.74153561 142.31339533 16.1510372 142.31154167 14.56054688 142.30737305 C12.11777533 142.30202462 9.67518766 142.30731829 7.23242188 142.3137207 C5.6907548 142.31305992 4.14908784 142.31177875 2.60742188 142.30981445 C1.87201172 142.31183868 1.13660156 142.31386292 0.37890625 142.31594849 C-4.77762652 142.29195356 -4.77762652 142.29195356 -5.89257812 141.17700195 C-5.99117508 139.3697055 -6.01889935 137.55851897 -6.01956177 135.74853516 C-6.0237915 133.98166855 -6.0237915 133.98166855 -6.02810669 132.17910767 C-6.02608246 130.87517059 -6.02405823 129.57123352 -6.02197266 128.2277832 C-6.02332668 126.84996494 -6.02510661 125.47214704 -6.02728271 124.09432983 C-6.03185697 120.34236648 -6.03006752 116.5904305 -6.02690363 112.83846664 C-6.02437999 108.92046787 -6.02671758 105.00247152 -6.02828979 101.08447266 C-6.03011148 94.50365781 -6.02770521 87.92285416 -6.02294922 81.34204102 C-6.0175066 73.72294752 -6.01926926 66.10388079 -6.02477562 58.48478794 C-6.02930679 51.95486757 -6.02995729 45.42495527 -6.02733696 38.89503384 C-6.0257742 34.98988341 -6.02558037 31.08474558 -6.02887344 27.17959595 C-6.03175221 23.50905727 -6.02977637 19.83855325 -6.02397919 16.16801834 C-6.02201599 14.17031146 -6.02500545 12.17260167 -6.02810669 10.17489624 C-6.02528687 8.99698517 -6.02246704 7.8190741 -6.01956177 6.60546875 C-6.01918474 5.57528122 -6.01880772 4.54509369 -6.01841927 3.48368835 C-5.78884917 -0.72436481 -3.71632284 0.03961165 0 0 Z M30.10742188 24.17700195 C30.10742188 37.37700195 30.10742188 50.57700195 30.10742188 64.17700195 C41.15010275 64.69940634 41.15010275 64.69940634 50.10742188 60.17700195 C55.10393826 54.68083393 54.79486363 48.10709031 54.49414062 41.0090332 C53.86226992 34.74776892 52.17163229 31.14051918 47.54492188 26.73950195 C41.45541277 22.83597047 38.65916945 24.17700195 30.10742188 24.17700195 Z " fill="#000000" transform="translate(992.892578125,61.822998046875)"/>
<path d="M0 0 C9.04357396 8.44635681 11.81627009 19.54349288 12.40856934 31.5184021 C12.63264639 39.88991199 12.58400737 48.26105148 12.51428223 56.63433838 C12.49504764 59.39943378 12.49111937 62.16446352 12.4875679 64.92961693 C12.48243669 68.23175326 12.46791566 71.53383221 12.453125 74.8359375 C12.44887512 76.07427338 12.44462524 77.31260925 12.44024658 78.58847046 C12.43063904 79.72120392 12.42103149 80.85393738 12.41113281 82.02099609 C12.40430481 83.02166107 12.39747681 84.02232605 12.39044189 85.05331421 C12.25 87.3125 12.25 87.3125 11.25 88.3125 C9.25035018 88.40008003 7.2476389 88.41946576 5.24609375 88.41015625 C3.42368164 88.40532227 3.42368164 88.40532227 1.56445312 88.40039062 C0.28505859 88.39201172 -0.99433594 88.38363281 -2.3125 88.375 C-3.59576172 88.37048828 -4.87902344 88.36597656 -6.20117188 88.36132812 C-9.38416022 88.34949545 -12.56705762 88.33301068 -15.75 88.3125 C-16.245 83.8575 -16.245 83.8575 -16.75 79.3125 C-17.636875 80.22 -18.52375 81.1275 -19.4375 82.0625 C-27.62467839 88.97247856 -38.4419386 90.15572589 -48.8125 89.6953125 C-59.48539137 88.65767028 -68.17674385 85.32214086 -75.49609375 77.4296875 C-80.38165269 71.45454347 -82.31822387 65.27398402 -82.05859375 57.515625 C-81.01699293 50.07938622 -78.30653756 43.73985071 -72.6484375 38.73828125 C-61.07853201 30.04894894 -46.79890745 29.8758801 -32.9375 30.125 C-31.45509193 30.14009514 -29.97266876 30.15377489 -28.49023438 30.16601562 C-24.90983456 30.1985905 -21.33001915 30.25009688 -17.75 30.3125 C-18.3427787 28.5300265 -18.94966327 26.7522397 -19.5625 24.9765625 C-19.89894531 23.9860791 -20.23539063 22.9955957 -20.58203125 21.97509766 C-22.18950017 18.31057924 -24.15740205 16.9591074 -27.75 15.3125 C-38.19548026 11.87804504 -50.94535512 14.17767797 -60.75 18.3125 C-62.07451172 19.15361328 -62.07451172 19.15361328 -63.42578125 20.01171875 C-64.19277344 20.44097656 -64.95976563 20.87023437 -65.75 21.3125 C-70.36515838 19.77411387 -71.37616543 16.15096595 -73.5625 12 C-74.2112207 10.84081055 -74.2112207 10.84081055 -74.87304688 9.65820312 C-75.27201172 8.90861328 -75.67097656 8.15902344 -76.08203125 7.38671875 C-76.63467651 6.35937622 -76.63467651 6.35937622 -77.19848633 5.3112793 C-77.75 3.3125 -77.75 3.3125 -77.04785156 1.17138672 C-74.97601767 -1.79605934 -71.92213271 -2.88024965 -68.6875 -4.25 C-67.97795166 -4.55301025 -67.26840332 -4.85602051 -66.53735352 -5.16821289 C-45.56017975 -13.67371679 -18.53768091 -14.29703495 0 0 Z M-51.625 53.125 C-53.14977526 56.08984078 -53.15388958 58.01406847 -52.75 61.3125 C-51.68439343 64.17631767 -50.72808245 65.75038365 -48.05078125 67.2890625 C-40.96904975 70.26645059 -34.07853855 70.13814807 -26.9375 67.47265625 C-22.88615247 65.32399515 -19.68544414 62.48832964 -17.75 58.3125 C-17.5106974 54.96421977 -17.57967897 51.6629522 -17.75 48.3125 C-21.95820145 48.22507199 -26.16616776 48.17196359 -30.375 48.125 C-31.56480469 48.09986328 -32.75460937 48.07472656 -33.98046875 48.04882812 C-41.0172891 47.98986036 -46.31271318 47.98978941 -51.625 53.125 Z " fill="#7367EC" transform="translate(793.75,116.6875)"/>
<path d="M0 0 C9.52030208 9.1920158 12.1381547 21.38478871 12.36791992 34.17822266 C12.37427895 36.65266458 12.36966411 39.12715312 12.35546875 41.6015625 C12.35501053 42.9153891 12.35455231 44.2292157 12.3540802 45.58285522 C12.35253014 48.33768148 12.34434668 51.09237504 12.33081055 53.84716797 C12.3136546 57.3835529 12.31000174 60.91979511 12.31075573 64.45621681 C12.31041977 67.838018 12.3015989 71.21977187 12.29296875 74.6015625 C12.29185593 75.87432037 12.2907431 77.14707825 12.28959656 78.45840454 C12.28321671 79.62406952 12.27683685 80.7897345 12.27026367 81.99072266 C12.26645187 83.02121735 12.26264008 84.05171204 12.25871277 85.11343384 C12.125 87.4375 12.125 87.4375 11.125 88.4375 C9.21041718 88.53721786 7.29217683 88.56830589 5.375 88.5703125 C4.2096875 88.57160156 3.044375 88.57289063 1.84375 88.57421875 C0.6165625 88.57035156 -0.610625 88.56648438 -1.875 88.5625 C-3.71578125 88.56830078 -3.71578125 88.56830078 -5.59375 88.57421875 C-6.7590625 88.57292969 -7.924375 88.57164062 -9.125 88.5703125 C-10.20265625 88.56918457 -11.2803125 88.56805664 -12.390625 88.56689453 C-14.875 88.4375 -14.875 88.4375 -15.875 87.4375 C-16.32959858 84.78286879 -16.57743238 82.11560862 -16.875 79.4375 C-17.29910156 79.83582031 -17.72320312 80.23414063 -18.16015625 80.64453125 C-27.15201251 88.76684537 -36.20498197 89.76392175 -47.984375 89.6484375 C-58.91205079 89.05597315 -68.30209894 85.76562313 -75.75 77.5 C-80.83728792 70.16832036 -82.67613983 62.74294176 -81.54296875 53.82421875 C-79.65423241 45.98900929 -75.12937562 40.04092389 -68.2578125 35.8359375 C-56.90237776 30.33514617 -45.60513301 30.16708094 -33.25 30.3125 C-31.75391227 30.32255392 -30.25781797 30.33167549 -28.76171875 30.33984375 C-25.13267374 30.36165692 -21.50388015 30.39605259 -17.875 30.4375 C-18.3178158 28.82042318 -18.77178259 27.20639698 -19.23046875 25.59375 C-19.48207764 24.69462891 -19.73368652 23.79550781 -19.99291992 22.86914062 C-21.21833641 19.49102043 -22.76379112 18.17398868 -25.875 16.4375 C-30.49025949 14.5900526 -34.69856607 14.08492373 -39.625 14.125 C-40.32874756 14.12918945 -41.03249512 14.13337891 -41.75756836 14.13769531 C-49.25045218 14.29922061 -55.36034581 15.81335178 -61.75 19.6875 C-64.875 21.4375 -64.875 21.4375 -66.91845703 21.27661133 C-70.69015263 19.65902738 -71.94612852 15.6207191 -73.75 12.125 C-74.17796875 11.35220703 -74.6059375 10.57941406 -75.046875 9.78320312 C-75.44132813 9.03361328 -75.83578125 8.28402344 -76.2421875 7.51171875 C-76.60425293 6.82682373 -76.96631836 6.14192871 -77.33935547 5.4362793 C-77.875 3.4375 -77.875 3.4375 -77.140625 1.28271484 C-72.28477751 -5.79685602 -58.85127361 -8.00898159 -50.875 -9.5625 C-33.74564709 -12.6513997 -13.99372985 -11.29359742 0 0 Z M-51.8125 53.6875 C-53.27513199 57.47313575 -53.05185412 59.56080406 -51.875 63.4375 C-48.54020985 67.42697287 -44.87814798 69.14395922 -39.796875 69.640625 C-32.73250403 69.79309344 -27.40773507 68.63987832 -22 63.9375 C-18.76697524 60.13394145 -17.62150722 58.19697213 -17.75 53.25 C-17.76804688 52.34894531 -17.78609375 51.44789063 -17.8046875 50.51953125 C-17.82789063 49.83246094 -17.85109375 49.14539063 -17.875 48.4375 C-22.08320145 48.35007199 -26.29116776 48.29696359 -30.5 48.25 C-31.68980469 48.22486328 -32.87960938 48.19972656 -34.10546875 48.17382812 C-44.03839335 48.02722567 -44.03839335 48.02722567 -51.8125 53.6875 Z " fill="#7367EC" transform="translate(256.875,116.5625)"/>
<path d="M0 0 C0.75044083 -0.00189835 1.50088165 -0.00379669 2.27406311 -0.00575256 C4.73115803 -0.00942941 7.18795133 0.00119457 9.64501953 0.01245117 C11.35897792 0.01364424 13.07293697 0.01409587 14.78689575 0.01383972 C18.36594782 0.01539892 21.94489906 0.02364944 25.52392578 0.03710938 C30.12088642 0.05417565 34.71773726 0.05792122 39.31472588 0.05716419 C42.8473313 0.05743535 46.37991252 0.06290655 49.91250992 0.07016563 C51.60866233 0.07335501 53.30481749 0.07532034 55.00097275 0.07605934 C57.36137377 0.07821571 59.72165563 0.08694224 62.08203125 0.09765625 C62.78744553 0.09720306 63.4928598 0.09674988 64.21965027 0.09628296 C69.03834985 0.12843774 69.03834985 0.12843774 70.15283203 1.24291992 C71.82633317 15.98867522 71.82633317 15.98867522 68.46142578 22.53198242 C66.16859766 25.29932627 63.75781371 27.76878207 61.15283203 30.24291992 C59.64001808 31.89796425 58.13974644 33.56456856 56.65283203 35.24291992 C55.91033203 36.05760742 55.16783203 36.87229492 54.40283203 37.71166992 C52.0742115 40.33136802 49.85720256 43.01807302 47.65283203 45.74291992 C44.05122532 50.19490599 40.28765461 54.45007407 36.43017578 58.68041992 C33.16555222 62.35382139 30.0826122 66.16608529 27.00048828 69.99291992 C25.15283203 72.24291992 25.15283203 72.24291992 23.15283203 74.24291992 C47.40783203 74.73791992 47.40783203 74.73791992 72.15283203 75.24291992 C72.15283203 82.50291992 72.15283203 89.76291992 72.15283203 97.24291992 C70.36675146 99.02900049 67.96019668 98.36917953 65.58184814 98.37844849 C64.78285095 98.37642426 63.98385376 98.37440002 63.16064453 98.37231445 C61.90462433 98.37494293 61.90462433 98.37494293 60.62322998 98.37762451 C57.84140989 98.38204393 55.05965282 98.37910472 52.27783203 98.37573242 C50.3535155 98.37640544 48.42919905 98.37737544 46.50488281 98.37863159 C42.46630038 98.38010869 38.42774003 98.37795363 34.38916016 98.37329102 C29.20014692 98.36759372 24.01118541 98.37087267 18.82217407 98.37686348 C14.84691983 98.38046878 10.87167794 98.37933065 6.89642334 98.37673569 C4.98256423 98.37606633 3.06870401 98.37689514 1.15484619 98.37921524 C-1.51512647 98.38174126 -4.18501417 98.3779019 -6.85498047 98.37231445 C-7.65397766 98.37433868 -8.45297485 98.37636292 -9.27618408 98.37844849 C-14.73290547 98.35718242 -14.73290547 98.35718242 -15.84716797 97.24291992 C-16.82987677 90.42735889 -17.87826234 82.6856225 -13.81591797 76.71557617 C-11.54863939 73.90828626 -9.0205145 71.36727542 -6.44238281 68.84643555 C-3.75838153 66.14846793 -1.35521482 63.21807105 1.09033203 60.30541992 C2.09797093 59.12837377 3.1070923 57.95259514 4.11767578 56.77807617 C6.13170445 54.43258409 8.14484201 52.08633518 10.15673828 49.73901367 C10.65214111 49.16103027 11.14754395 48.58304688 11.65795898 47.98754883 C12.64764909 46.83250628 13.6370735 45.67723602 14.6262207 44.52172852 C17.26814815 41.43650125 19.91686551 38.35742248 22.57470703 35.28588867 C23.13158203 34.64071289 23.68845703 33.99553711 24.26220703 33.33081055 C25.33833679 32.08429358 26.41639827 30.83944112 27.49658203 29.59643555 C30.01134321 27.22139249 30.01134321 27.22139249 31.15283203 24.24291992 C30.6060379 24.24958176 30.05924377 24.25624359 29.49588013 24.2631073 C23.81860214 24.32933988 18.14143339 24.37466988 12.46386719 24.40771484 C10.34337916 24.42282637 8.2229225 24.44331632 6.10253906 24.46923828 C3.05932893 24.50551778 0.016531 24.52262235 -3.02685547 24.53588867 C-3.97897919 24.55137253 -4.93110291 24.56685638 -5.91207886 24.58280945 C-7.23322189 24.58314934 -7.23322189 24.58314934 -8.58105469 24.58349609 C-9.35826874 24.59015793 -10.13548279 24.59681976 -10.93624878 24.60368347 C-11.56685211 24.4846315 -12.19745544 24.36557953 -12.84716797 24.24291992 C-14.94926654 21.08977207 -15.09064407 20.38188912 -15.04248047 16.79370117 C-15.03603516 15.94614258 -15.02958984 15.09858398 -15.02294922 14.2253418 C-15.00619141 13.34426758 -14.98943359 12.46319336 -14.97216797 11.55541992 C-14.96314453 10.66274414 -14.95412109 9.77006836 -14.94482422 8.8503418 C-14.92126545 6.64759678 -14.88837125 4.44539404 -14.84716797 2.24291992 C-9.80665977 0.5935114 -5.31676791 -0.04309672 0 0 Z " fill="#7267ED" transform="translate(632.84716796875,106.757080078125)"/>
<path d="M0 0 C4.98584855 4.22170484 9.88570427 8.65711281 12 15 C10.38804615 19.83586156 6.0438356 20.9904501 1.6875 23.25 C0.81931641 23.72179687 -0.04886719 24.19359375 -0.94335938 24.6796875 C-1.78318359 25.12054688 -2.62300781 25.56140625 -3.48828125 26.015625 C-4.25696533 26.42071289 -5.02564941 26.82580078 -5.81762695 27.24316406 C-8.36738515 28.12740731 -9.51722992 27.98587959 -12 27 C-13.59764403 25.36889745 -14.87970906 23.61867641 -16.2421875 21.7890625 C-20.07574622 17.88735163 -24.30962106 16.61207232 -29.7097168 16.42919922 C-37.7399608 16.46186983 -43.94093922 17.11879815 -50 23 C-55.40583294 29.50177629 -55.84572211 37.08040934 -55.41015625 45.21484375 C-54.64251243 52.29909953 -52.79105453 56.86722078 -47.25 61.4375 C-40.56342944 65.87058546 -34.5068365 66.49116245 -26.609375 65.53125 C-19.46451678 64.07660821 -15.30200106 59.60993544 -11 54 C-7.84155182 54.65748573 -5.2946779 55.76838139 -2.453125 57.28515625 C-1.60878906 57.73310547 -0.76445312 58.18105469 0.10546875 58.64257812 C0.97816406 59.11115234 1.85085938 59.57972656 2.75 60.0625 C3.63816406 60.53494141 4.52632813 61.00738281 5.44140625 61.49414062 C7.62971037 62.65888314 9.81578248 63.82761712 12 65 C10.75189758 72.20301271 6.36643109 77.42180643 0.59765625 81.83984375 C-13.45004091 90.56139981 -28.92361003 93.11735792 -45.25 90.3125 C-54.48979888 88.08810397 -62.86005135 84.28853218 -70 78 C-70.67804688 77.42636719 -71.35609375 76.85273438 -72.0546875 76.26171875 C-80.68772676 68.3942509 -85.70196441 57.40179462 -86.3359375 45.73828125 C-86.62639367 31.55513199 -84.29547582 20.17035948 -75 9 C-74.46503906 8.35289063 -73.93007813 7.70578125 -73.37890625 7.0390625 C-55.85163052 -12.21151852 -20.75545929 -14.72968078 0 0 Z " fill="#7267EB" transform="translate(370,115)"/>
<path d="M0 0 C11.88 0 23.76 0 36 0 C36.02254622 18.36684668 36.0409787 36.73368222 36.05181217 55.10053921 C36.05697533 63.62798494 36.06401841 72.15542149 36.07543945 80.68286133 C36.08538568 88.11266255 36.09185328 95.54245713 36.09408849 102.97226483 C36.09539571 106.9087332 36.09848221 110.84518253 36.10573006 114.78164482 C36.11248931 118.48253327 36.11461716 122.18339475 36.11310768 125.88428879 C36.11351638 127.89870802 36.11891207 129.91312427 36.12442017 131.92753601 C36.1230455 133.1153064 36.12167084 134.30307678 36.12025452 135.52684021 C36.12117631 136.5657009 36.1220981 137.6045616 36.12304783 138.67490292 C36 141 36 141 35 142 C32.49075847 142.10087212 30.00963616 142.13972032 27.5 142.1328125 C26.74912109 142.13376923 25.99824219 142.13472595 25.22460938 142.13571167 C23.63411373 142.13639338 22.04361533 142.13453972 20.453125 142.13037109 C18.01035345 142.12502267 15.56776579 142.13031634 13.125 142.13671875 C11.58333293 142.13605797 10.04166597 142.1347768 8.5 142.1328125 C7.76458984 142.13483673 7.02917969 142.13686096 6.27148438 142.13894653 C1.11495161 142.11495161 1.11495161 142.11495161 0 141 C-0.09643778 139.17772313 -0.12187371 137.3516664 -0.12025452 135.52684021 C-0.12231651 133.74518463 -0.12231651 133.74518463 -0.12442017 131.92753601 C-0.12082489 130.61267715 -0.11722961 129.2978183 -0.11352539 127.94311523 C-0.11324352 126.55382286 -0.11340125 125.16453033 -0.1139679 123.77523804 C-0.11425588 119.99234711 -0.10835901 116.20948762 -0.10139394 112.42660403 C-0.09516055 108.47744323 -0.09455661 104.52828178 -0.09336853 100.57911682 C-0.09025517 93.09574925 -0.08204172 85.61239621 -0.07201904 78.12903506 C-0.06085805 69.61164267 -0.05534749 61.0942496 -0.05032361 52.57685173 C-0.03985911 35.05122456 -0.02151357 17.52561733 0 0 Z " fill="#000000" transform="translate(1100,62)"/>
<path d="M0 0 C9.57 0 19.14 0 29 0 C29 7.59 29 15.18 29 23 C36.92 23 44.84 23 53 23 C53 30.59 53 38.18 53 46 C45.08 46 37.16 46 29 46 C29.07411563 51.7299047 29.15704972 57.45828151 29.26245117 63.1875 C29.29563265 65.13500968 29.32368557 67.08261397 29.34643555 69.03027344 C29.38010634 71.83569515 29.43242827 74.64025528 29.48828125 77.4453125 C29.49467117 78.31116974 29.5010611 79.17702698 29.50764465 80.06912231 C29.6287665 85.08919313 30.19584556 88.66032926 33 93 C35.66806885 94.33403442 37.77073313 94.16897222 40.75 94.1875 C41.77609375 94.20167969 42.8021875 94.21585937 43.859375 94.23046875 C47.19374275 93.98578256 49.88391545 93.1801937 53 92 C54.20258256 95.098534 55.38440783 98.20458066 56.5625 101.3125 C56.90474609 102.19357422 57.24699219 103.07464844 57.59960938 103.98242188 C58.07817383 105.25375977 58.07817383 105.25375977 58.56640625 106.55078125 C58.86490479 107.33106689 59.16340332 108.11135254 59.47094727 108.9152832 C60 111 60 111 59 114 C57.14453125 115.1328125 57.14453125 115.1328125 54.8125 116.125 C53.67748047 116.62386719 53.67748047 116.62386719 52.51953125 117.1328125 C41.82871156 120.81244346 28.13380934 120.41675324 17.703125 116.03515625 C8.7776308 111.58738481 4.0347473 105.29743325 0.80505371 95.99935913 C-0.48617775 91.18866537 -0.49589773 86.59730488 -0.390625 81.64453125 C-0.38496521 80.61688156 -0.37930542 79.58923187 -0.37347412 78.53044128 C-0.35131943 75.29062674 -0.30116354 72.05197275 -0.25 68.8125 C-0.22990795 66.59832341 -0.21166196 64.38412926 -0.1953125 62.16992188 C-0.1515234 56.77950976 -0.08264358 51.38995071 0 46 C-4.95 46 -9.9 46 -15 46 C-15 38.41 -15 30.82 -15 23 C-10.05 23 -5.1 23 0 23 C0 15.41 0 7.82 0 0 Z " fill="#7367EC" transform="translate(399,87)"/>
<path d="M0 0 C1.21042969 -0.00128906 2.42085937 -0.00257812 3.66796875 -0.00390625 C4.94285156 -0.00003906 6.21773437 0.00382812 7.53125 0.0078125 C9.44357422 0.00201172 9.44357422 0.00201172 11.39453125 -0.00390625 C13.21017578 -0.00197266 13.21017578 -0.00197266 15.0625 0 C16.18205078 0.00112793 17.30160156 0.00225586 18.45507812 0.00341797 C21.03125 0.1328125 21.03125 0.1328125 22.03125 1.1328125 C22.12964707 2.83875341 22.15757028 4.54879221 22.15823364 6.25756836 C22.16105347 7.3681662 22.16387329 8.47876404 22.16677856 9.62301636 C22.16475433 10.85214752 22.1627301 12.08127869 22.16064453 13.34765625 C22.16239685 14.6336673 22.16414917 15.91967834 22.16595459 17.24465942 C22.17052853 20.78175414 22.16873953 24.31881982 22.1655755 27.85591507 C22.1630517 31.54969616 22.1653895 35.24347468 22.16696167 38.93725586 C22.16878331 45.14144337 22.16637721 51.34561898 22.16162109 57.54980469 C22.15617848 64.73264614 22.15794114 71.91545921 22.1634475 79.09829998 C22.1679788 85.25455055 22.1686291 91.41079256 22.16600883 97.56704426 C22.16444615 101.24862954 22.16425205 104.93020146 22.16754532 108.61178589 C22.17095812 112.71386407 22.16623402 116.81589297 22.16064453 120.91796875 C22.16266876 122.14709991 22.16469299 123.37623108 22.16677856 124.64260864 C22.16254883 126.3085054 22.16254883 126.3085054 22.15823364 128.00805664 C22.15785662 128.97924942 22.15747959 129.9504422 22.15709114 130.95106506 C22.03125 133.1328125 22.03125 133.1328125 21.03125 134.1328125 C19.04367972 134.23264308 17.0525748 134.26362003 15.0625 134.265625 C13.85207031 134.26691406 12.64164063 134.26820313 11.39453125 134.26953125 C10.11964844 134.26566406 8.84476563 134.26179687 7.53125 134.2578125 C5.61892578 134.26361328 5.61892578 134.26361328 3.66796875 134.26953125 C1.85232422 134.26759766 1.85232422 134.26759766 0 134.265625 C-1.11955078 134.26449707 -2.23910156 134.26336914 -3.39257812 134.26220703 C-5.96875 134.1328125 -5.96875 134.1328125 -6.96875 133.1328125 C-7.06714707 131.42687159 -7.09507028 129.71683279 -7.09573364 128.00805664 C-7.09855347 126.8974588 -7.10137329 125.78686096 -7.10427856 124.64260864 C-7.10225433 123.41347748 -7.1002301 122.18434631 -7.09814453 120.91796875 C-7.09989685 119.6319577 -7.10164917 118.34594666 -7.10345459 117.02096558 C-7.10802853 113.48387086 -7.10623953 109.94680518 -7.1030755 106.40970993 C-7.1005517 102.71592884 -7.1028895 99.02215032 -7.10446167 95.32836914 C-7.10628331 89.12418163 -7.10387721 82.92000602 -7.09912109 76.71582031 C-7.09367848 69.53297886 -7.09544114 62.35016579 -7.1009475 55.16732502 C-7.1054788 49.01107445 -7.1061291 42.85483244 -7.10350883 36.69858074 C-7.10194615 33.01699546 -7.10175205 29.33542354 -7.10504532 25.65383911 C-7.10845812 21.55176093 -7.10373402 17.44973203 -7.09814453 13.34765625 C-7.10016876 12.11852509 -7.10219299 10.88939392 -7.10427856 9.62301636 C-7.10145874 8.51241852 -7.09863892 7.40182068 -7.09573364 6.25756836 C-7.09535662 5.28637558 -7.09497959 4.3151828 -7.09459114 3.31455994 C-6.83760085 -1.14096164 -3.79375657 0.00382215 0 0 Z " fill="#7367EF" transform="translate(528.96875,70.8671875)"/>
<path d="M0 0 C1.00353516 0.0009668 1.00353516 0.0009668 2.02734375 0.00195312 C5.48574959 0.0319393 8.83582374 0.25982388 12.26760864 0.69657898 C14.17701736 0.93958488 14.17701736 0.93958488 16.125 1.1875 C16.14812143 13.687071 16.16591406 26.18663695 16.17681217 38.68622494 C16.18204144 44.48963613 16.18913987 50.29303275 16.20043945 56.09643555 C16.21126678 61.69200853 16.2172765 67.28756745 16.21987724 72.8831501 C16.22173177 75.02308944 16.22535291 77.16302796 16.23073006 79.30296135 C16.23793844 82.28914966 16.23899103 85.27527907 16.23852539 88.26147461 C16.24212067 89.15555023 16.24571594 90.04962585 16.24942017 90.97079468 C16.23905216 97.07344784 16.23905216 97.07344784 15.125 98.1875 C13.05237924 98.27517112 10.97679706 98.29445873 8.90234375 98.28515625 C7.01225586 98.28032227 7.01225586 98.28032227 5.08398438 98.27539062 C3.74348891 98.26703403 2.40299412 98.25856907 1.0625 98.25 C-0.28189942 98.2449866 -1.6263006 98.24042342 -2.97070312 98.23632812 C-6.27217941 98.22449488 -9.57356803 98.20800971 -12.875 98.1875 C-14.55572775 94.8260445 -14.00376829 91.02762532 -13.98852539 87.33154297 C-13.98867142 86.41441528 -13.98881744 85.4972876 -13.9889679 84.55236816 C-13.98826948 81.51145081 -13.9804804 78.4705942 -13.97265625 75.4296875 C-13.97079182 73.32504307 -13.96936803 71.2203982 -13.96836853 69.11575317 C-13.96454535 63.56893725 -13.95471674 58.0221474 -13.94366455 52.4753418 C-13.93344616 46.8182002 -13.92886999 41.16105441 -13.92382812 35.50390625 C-13.91309431 24.39842603 -13.89602026 13.29296518 -13.875 2.1875 C-9.11229239 0.48809655 -5.0294428 -0.09100896 0 0 Z " fill="#7266EE" transform="translate(483.875,106.8125)"/>
<path d="M0 0 C0.92039062 -0.00128906 1.84078125 -0.00257812 2.7890625 -0.00390625 C4.19671875 0.00189453 4.19671875 0.00189453 5.6328125 0.0078125 C7.07527344 0.00201172 7.07527344 0.00201172 8.546875 -0.00390625 C9.91585937 -0.00197266 9.91585937 -0.00197266 11.3125 0 C12.14249512 0.00112793 12.97249023 0.00225586 13.82763672 0.00341797 C15.7578125 0.1328125 15.7578125 0.1328125 16.7578125 1.1328125 C16.8584252 4.1104262 16.89396143 7.06488417 16.88720703 10.04296875 C16.88895935 10.97785126 16.89071167 11.91273376 16.89251709 12.87594604 C16.89693724 15.98242012 16.89399704 19.08883779 16.890625 22.1953125 C16.89129799 24.34383149 16.89226798 26.49235041 16.89352417 28.64086914 C16.89500136 33.15023522 16.89284589 37.65958153 16.88818359 42.16894531 C16.8824863 47.96329827 16.88576519 53.75760492 16.89175606 59.55195618 C16.89536109 63.99044141 16.89422335 68.42891557 16.89162827 72.86740112 C16.89095884 75.00454717 16.89178797 77.14169421 16.89410782 79.27883911 C16.8966334 82.26013876 16.89279509 85.2413623 16.88720703 88.22265625 C16.88923126 89.11516083 16.89125549 90.00766541 16.89334106 90.92721558 C16.87207482 97.01855018 16.87207482 97.01855018 15.7578125 98.1328125 C6.5178125 98.1328125 -2.7221875 98.1328125 -12.2421875 98.1328125 C-12.2421875 66.1228125 -12.2421875 34.1128125 -12.2421875 1.1328125 C-7.90229449 0.51282778 -4.26955165 0.00575522 0 0 Z " fill="#7266EE" transform="translate(585.2421875,106.8671875)"/>
<path d="M0 0 C1.21042969 -0.00128906 2.42085937 -0.00257812 3.66796875 -0.00390625 C4.94285156 -0.00003906 6.21773437 0.00382812 7.53125 0.0078125 C9.44357422 0.00201172 9.44357422 0.00201172 11.39453125 -0.00390625 C13.21017578 -0.00197266 13.21017578 -0.00197266 15.0625 0 C16.18205078 0.00112793 17.30160156 0.00225586 18.45507812 0.00341797 C21.03125 0.1328125 21.03125 0.1328125 22.03125 1.1328125 C22.12964707 2.83875341 22.15757028 4.54879221 22.15823364 6.25756836 C22.16105347 7.3681662 22.16387329 8.47876404 22.16677856 9.62301636 C22.16475433 10.85214752 22.1627301 12.08127869 22.16064453 13.34765625 C22.16239685 14.6336673 22.16414917 15.91967834 22.16595459 17.24465942 C22.17052853 20.78175414 22.16873953 24.31881982 22.1655755 27.85591507 C22.1630517 31.54969616 22.1653895 35.24347468 22.16696167 38.93725586 C22.16878331 45.14144337 22.16637721 51.34561898 22.16162109 57.54980469 C22.15617848 64.73264614 22.15794114 71.91545921 22.1634475 79.09829998 C22.1679788 85.25455055 22.1686291 91.41079256 22.16600883 97.56704426 C22.16444615 101.24862954 22.16425205 104.93020146 22.16754532 108.61178589 C22.17095812 112.71386407 22.16623402 116.81589297 22.16064453 120.91796875 C22.16266876 122.14709991 22.16469299 123.37623108 22.16677856 124.64260864 C22.16254883 126.3085054 22.16254883 126.3085054 22.15823364 128.00805664 C22.15785662 128.97924942 22.15747959 129.9504422 22.15709114 130.95106506 C22.03125 133.1328125 22.03125 133.1328125 21.03125 134.1328125 C19.04367972 134.23264308 17.0525748 134.26362003 15.0625 134.265625 C13.85207031 134.26691406 12.64164063 134.26820313 11.39453125 134.26953125 C10.11964844 134.26566406 8.84476563 134.26179687 7.53125 134.2578125 C5.61892578 134.26361328 5.61892578 134.26361328 3.66796875 134.26953125 C1.85232422 134.26759766 1.85232422 134.26759766 0 134.265625 C-1.11955078 134.26449707 -2.23910156 134.26336914 -3.39257812 134.26220703 C-5.96875 134.1328125 -5.96875 134.1328125 -6.96875 133.1328125 C-7.06714707 131.42687159 -7.09507028 129.71683279 -7.09573364 128.00805664 C-7.09855347 126.8974588 -7.10137329 125.78686096 -7.10427856 124.64260864 C-7.10225433 123.41347748 -7.1002301 122.18434631 -7.09814453 120.91796875 C-7.09989685 119.6319577 -7.10164917 118.34594666 -7.10345459 117.02096558 C-7.10802853 113.48387086 -7.10623953 109.94680518 -7.1030755 106.40970993 C-7.1005517 102.71592884 -7.1028895 99.02215032 -7.10446167 95.32836914 C-7.10628331 89.12418163 -7.10387721 82.92000602 -7.09912109 76.71582031 C-7.09367848 69.53297886 -7.09544114 62.35016579 -7.1009475 55.16732502 C-7.1054788 49.01107445 -7.1061291 42.85483244 -7.10350883 36.69858074 C-7.10194615 33.01699546 -7.10175205 29.33542354 -7.10504532 25.65383911 C-7.10845812 21.55176093 -7.10373402 17.44973203 -7.09814453 13.34765625 C-7.10016876 12.11852509 -7.10219299 10.88939392 -7.10427856 9.62301636 C-7.10145874 8.51241852 -7.09863892 7.40182068 -7.09573364 6.25756836 C-7.09535662 5.28637558 -7.09497959 4.3151828 -7.09459114 3.31455994 C-6.83760085 -1.14096164 -3.79375657 0.00382215 0 0 Z M-5.96875 2.1328125 C-5.99129677 19.06543764 -6.00972902 35.99805003 -6.02056217 52.930686 C-6.02572519 60.79225641 -6.03276801 68.65381685 -6.04418945 76.51538086 C-6.0541361 83.36506725 -6.06060338 90.21474642 -6.06283849 97.06443983 C-6.06414563 100.69350646 -6.06723169 104.32255244 -6.07448006 107.95161247 C-6.08249356 111.99631554 -6.08274115 116.04098239 -6.08227539 120.08569336 C-6.08587067 121.29769409 -6.08946594 122.50969482 -6.09317017 123.75842285 C-6.0917955 124.85363754 -6.09042084 125.94885223 -6.08900452 127.07725525 C-6.08992631 128.03499816 -6.0908481 128.99274107 -6.09179783 129.97950649 C-6.20948658 132.11394733 -6.20948658 132.11394733 -4.96875 133.1328125 C-3.20015807 133.23227703 -1.42763549 133.26361467 0.34375 133.265625 C1.41882813 133.26691406 2.49390625 133.26820313 3.6015625 133.26953125 C5.29925781 133.26373047 5.29925781 133.26373047 7.03125 133.2578125 C8.16304687 133.26167969 9.29484375 133.26554688 10.4609375 133.26953125 C11.53601563 133.26824219 12.61109375 133.26695312 13.71875 133.265625 C14.71261719 133.26449707 15.70648437 133.26336914 16.73046875 133.26220703 C18.99500226 133.3911558 18.99500226 133.3911558 20.03125 132.1328125 C20.12741807 130.44989554 20.15312691 128.76291689 20.15150452 127.07725525 C20.15287918 125.98204056 20.15425385 124.88682587 20.15567017 123.75842285 C20.15207489 122.54642212 20.14847961 121.33442139 20.14477539 120.08569336 C20.14492142 118.81758316 20.14506744 117.54947296 20.1452179 116.24293518 C20.14550585 112.75548828 20.13960945 109.26807549 20.13264394 105.78063655 C20.12641007 102.13977527 20.12580658 98.49891328 20.12461853 94.85804749 C20.12150531 87.95904278 20.11329205 81.06005385 20.10326904 74.1610561 C20.09210761 66.30870565 20.08659738 58.45635447 20.08157361 50.60399806 C20.07110943 34.44692551 20.05276406 18.28987469 20.03125 2.1328125 C11.45125 2.1328125 2.87125 2.1328125 -5.96875 2.1328125 Z " fill="#746BD1" transform="translate(528.96875,70.8671875)"/>
<path d="M0 0 C0 4.14500147 -2.26148684 5.9819982 -4.875 8.9375 C-7.68540246 12.14545239 -10.12167842 15.15070421 -12 19 C-13.47265625 20.4140625 -13.47265625 20.4140625 -15.0625 21.625 C-18.00824713 23.67119397 -18.00824713 23.67119397 -19 26 C-19 31.28 -19 36.56 -19 42 C8.39 42 35.78 42 64 42 C64 35.4 64 28.8 64 22 C48.49 22 32.98 22 17 22 C17 21.67 17 21.34 17 21 C33.17 21 49.34 21 66 21 C66 28.26 66 35.52 66 43 C64.21391943 44.78608057 61.80736465 44.12625961 59.42901611 44.13552856 C58.63001892 44.13350433 57.83102173 44.1314801 57.0078125 44.12939453 C56.1704657 44.13114685 55.3331189 44.13289917 54.47039795 44.13470459 C51.68857786 44.13912401 48.90682079 44.1361848 46.125 44.1328125 C44.20068347 44.13348551 42.27636702 44.13445552 40.35205078 44.13571167 C36.31346835 44.13718877 32.274908 44.13503371 28.23632812 44.13037109 C23.04731489 44.1246738 17.85835337 44.12795274 12.66934204 44.13394356 C8.6940878 44.13754886 4.71884591 44.13641073 0.74359131 44.13381577 C-1.1702678 44.13314641 -3.08412802 44.13397522 -4.99798584 44.13629532 C-7.6679585 44.13882133 -10.3378462 44.13498198 -13.0078125 44.12939453 C-13.80680969 44.13141876 -14.60580688 44.13344299 -15.42901611 44.13552856 C-20.8857375 44.1142625 -20.8857375 44.1142625 -22 43 C-22.98749382 36.15125251 -24.0299863 28.42599471 -19.93359375 22.4375 C-17.67587111 19.64879522 -15.16536445 17.12297428 -12.60058594 14.61767578 C-9.81612377 11.80348324 -7.33637988 8.73397834 -4.8125 5.6875 C-3.88281583 4.58613633 -2.95194976 3.48576848 -2.01953125 2.38671875 C-1.35308594 1.59910156 -0.68664062 0.81148437 0 0 Z " fill="#746ED0" transform="translate(639,161)"/>
<path d="M0 0 C0.99 0.495 0.99 0.495 2 1 C2 31.69 2 62.38 2 94 C14.87 94.495 14.87 94.495 28 95 C28 64.97 28 34.94 28 4 C28.33 4 28.66 4 29 4 C29.0231219 15.97803559 29.0409143 27.95606591 29.05181217 39.93411922 C29.05704134 45.49539411 29.06413958 51.05665379 29.07543945 56.61791992 C29.08626715 61.98007419 29.09227658 67.34221378 29.09487724 72.70437813 C29.09673171 74.75500278 29.10035272 76.8056266 29.10573006 78.85624504 C29.11293893 81.71790203 29.11399101 84.57949757 29.11352539 87.44116211 C29.11712067 88.29783478 29.12071594 89.15450745 29.12442017 90.03713989 C29.11405216 95.88594784 29.11405216 95.88594784 28 97 C18.76 97 9.52 97 0 97 C0 64.99 0 32.98 0 0 Z " fill="#746ECC" transform="translate(573,108)"/>
<path d="M0 0 C0.33 0 0.66 0 1 0 C2.28556643 6.90018525 2.14394186 13.77351588 2.1328125 20.7734375 C2.13424759 22.75266708 2.13424759 22.75266708 2.13571167 24.7718811 C2.13717906 27.55056949 2.135063 30.32922555 2.13037109 33.10791016 C2.12464088 36.67578859 2.12797949 40.24359235 2.13394356 43.81146812 C2.13841155 47.21546403 2.13529144 50.61943947 2.1328125 54.0234375 C2.13483673 55.30874359 2.13686096 56.59404968 2.13894653 57.91830444 C2.13579437 59.09688019 2.13264221 60.27545593 2.12939453 61.48974609 C2.12859894 62.5323056 2.12780334 63.57486511 2.12698364 64.64901733 C2 67 2 67 1 68 C-0.91458282 68.09971786 -2.83282317 68.13080589 -4.75 68.1328125 C-5.9153125 68.13410156 -7.080625 68.13539063 -8.28125 68.13671875 C-9.5084375 68.13285156 -10.735625 68.12898438 -12 68.125 C-13.84078125 68.13080078 -13.84078125 68.13080078 -15.71875 68.13671875 C-16.8840625 68.13542969 -18.049375 68.13414062 -19.25 68.1328125 C-20.32765625 68.13168457 -21.4053125 68.13055664 -22.515625 68.12939453 C-25 68 -25 68 -26 67 C-26.23363881 65.15108054 -26.41303635 63.29511969 -26.5625 61.4375 C-26.64628906 60.42558594 -26.73007813 59.41367188 -26.81640625 58.37109375 C-26.87699219 57.58863281 -26.93757812 56.80617187 -27 56 C-26.34 56 -25.68 56 -25 56 C-24 58 -24 58 -24 66 C-16.08 66 -8.16 66 0 66 C0 44.22 0 22.44 0 0 Z " fill="#746CD0" transform="translate(267,137)"/>
<path d="M0 0 C0.33 0 0.66 0 1 0 C1.02312143 12.499571 1.04091406 24.99913695 1.05181217 37.49872494 C1.05704144 43.30213613 1.06413987 49.10553275 1.07543945 54.90893555 C1.08626678 60.50450853 1.0922765 66.10006745 1.09487724 71.6956501 C1.09673177 73.83558944 1.10035291 75.97552796 1.10573006 78.11546135 C1.11293844 81.10164966 1.11399103 84.08777907 1.11352539 87.07397461 C1.11712067 87.96805023 1.12071594 88.86212585 1.12442017 89.78329468 C1.11405216 95.88594784 1.11405216 95.88594784 0 97 C-2.07262076 97.08767112 -4.14820294 97.10695873 -6.22265625 97.09765625 C-8.11274414 97.09282227 -8.11274414 97.09282227 -10.04101562 97.08789062 C-11.38151109 97.07953403 -12.72200588 97.07106907 -14.0625 97.0625 C-15.40689942 97.0574866 -16.7513006 97.05292342 -18.09570312 97.04882812 C-21.39717941 97.03699488 -24.69856803 97.02050971 -28 97 C-28.495 94.525 -28.495 94.525 -29 92 C-28.34 92 -27.68 92 -27 92 C-27 92.99 -27 93.98 -27 95 C-18.42 94.67 -9.84 94.34 -1 94 C-0.67 62.98 -0.34 31.96 0 0 Z " fill="#716BCD" transform="translate(499,108)"/>
<path d="M0 0 C0.68191406 -0.00386719 1.36382812 -0.00773437 2.06640625 -0.01171875 C3.08154297 -0.00978516 3.08154297 -0.00978516 4.1171875 -0.0078125 C5.01993408 -0.00612061 5.01993408 -0.00612061 5.94091797 -0.00439453 C9.01994052 0.17802017 12.07157866 0.68879695 15.125 1.125 C15.125 31.815 15.125 62.505 15.125 94.125 C14.795 94.125 14.465 94.125 14.125 94.125 C14.125 63.765 14.125 33.405 14.125 2.125 C5.71 2.62 5.71 2.62 -2.875 3.125 C-5.875 3.125 -8.875 3.125 -11.875 3.125 C-12.865 3.62 -12.865 3.62 -13.875 4.125 C-13.545 3.135 -13.215 2.145 -12.875 1.125 C-8.57717639 0.07144791 -4.39880339 -0.02466619 0 0 Z " fill="#6D61EA" transform="translate(483.875,106.875)"/>
<path d="M0 0 C0.66 0 1.32 0 2 0 C2.33 15.84 2.66 31.68 3 48 C3.99 47.505 3.99 47.505 5 47 C4.38722388 49.96175123 3.74627478 51.38058783 2 54 C-0.1293725 47.93239358 -0.26185911 42.42989588 -0.1953125 36.03515625 C-0.1924826 35.00184677 -0.18965271 33.96853729 -0.18673706 32.90391541 C-0.17559647 29.62332278 -0.15050304 26.34300927 -0.125 23.0625 C-0.1149623 20.83008208 -0.10583783 18.59765986 -0.09765625 16.36523438 C-0.07567721 10.910062 -0.04226084 5.45505095 0 0 Z " fill="#7870D3" transform="translate(399,133)"/>
<path d="M0 0 C1.14404297 0.00064453 2.28808594 0.00128906 3.46679688 0.00195312 C11.90624066 0.04687033 11.90624066 0.04687033 14.1875 1.1875 C14.1875 5.1475 14.1875 9.1075 14.1875 13.1875 C13.5275 13.5175 12.8675 13.8475 12.1875 14.1875 C12.5175 10.2275 12.8475 6.2675 13.1875 2.1875 C8.97817839 2.27456871 4.77095474 2.38148347 0.5625 2.5 C-0.62730469 2.52255859 -1.81710938 2.54511719 -3.04296875 2.56835938 C-11.34495321 2.77573376 -11.34495321 2.77573376 -18.8125 6.1875 C-19.8025 6.6825 -19.8025 6.6825 -20.8125 7.1875 C-20.4825 5.5375 -20.1525 3.8875 -19.8125 2.1875 C-13.23769323 -0.21977368 -6.94325998 -0.07559997 0 0 Z " fill="#766ED0" transform="translate(225.8125,162.8125)"/>
<path d="M0 0 C0.66 0 1.32 0 2 0 C2.99 2.97 3.98 5.94 5 9 C5.66 9 6.32 9 7 9 C6.67 7.68 6.34 6.36 6 5 C6.53625 5.185625 7.0725 5.37125 7.625 5.5625 C10.0916209 6.15750789 10.0916209 6.15750789 12.9375 5.5 C16.01210871 4.99802307 18.01840312 5.21075377 21 6 C18.82896321 8.17103679 16.84581937 9.27864843 14.125 10.6875 C13.26132813 11.14511719 12.39765625 11.60273438 11.5078125 12.07421875 C9 13 9 13 6.8515625 12.953125 C4.15121147 11.56307088 3.51460353 9.78295883 2.25 7.0625 C1.82203125 6.16660156 1.3940625 5.27070313 0.953125 4.34765625 C0 2 0 2 0 0 Z " fill="#7369DB" transform="translate(183,125)"/>
<path d="M0 0 C0.33 0.66 0.66 1.32 1 2 C9.58 2 18.16 2 27 2 C27.33 2.66 27.66 3.32 28 4 C26.85785034 4.03758423 26.85785034 4.03758423 25.69262695 4.07592773 C22.23242624 4.19219048 18.77247746 4.31477978 15.3125 4.4375 C14.11431641 4.47681641 12.91613281 4.51613281 11.68164062 4.55664062 C9.94624023 4.61948242 9.94624023 4.61948242 8.17578125 4.68359375 C7.11270752 4.72025146 6.04963379 4.75690918 4.9543457 4.79467773 C2.21795468 4.9848525 -0.32856732 5.3931507 -3 6 C-1.125 1.125 -1.125 1.125 0 0 Z " fill="#786FD8" transform="translate(748,161)"/>
<path d="M0 0 C0.33 0 0.66 0 1 0 C1 19.14 1 38.28 1 58 C-0.65 58 -2.3 58 -4 58 C-3.34 57.01 -2.68 56.02 -2 55 C-1.34 55 -0.68 55 0 55 C0 36.85 0 18.7 0 0 Z " fill="#766BF8" transform="translate(266,145)"/>
<path d="M0 0 C1.22589844 0.01353516 1.22589844 0.01353516 2.4765625 0.02734375 C3.41628906 0.04474609 3.41628906 0.04474609 4.375 0.0625 C4.375 0.3925 4.375 0.7225 4.375 1.0625 C1.075 1.3925 -2.225 1.7225 -5.625 2.0625 C-5.398125 3.135 -5.17125 4.2075 -4.9375 5.3125 C-4.625 9.0625 -4.625 9.0625 -5.875 11.4375 C-7.625 13.0625 -7.625 13.0625 -10.625 14.0625 C-11.42712628 15.93637216 -11.42712628 15.93637216 -11.8125 18.125 C-11.97105469 18.85847656 -12.12960938 19.59195313 -12.29296875 20.34765625 C-12.40253906 20.91355469 -12.51210938 21.47945312 -12.625 22.0625 C-13.285 22.0625 -13.945 22.0625 -14.625 22.0625 C-12.68086521 14.77594602 -10.27078215 7.69228866 -6.625 1.0625 C-4.21954362 -0.14022819 -2.67503047 -0.03821472 0 0 Z " fill="#726AD8" transform="translate(75.625,69.9375)"/>
<path d="M0 0 C6.21068265 5.0767097 10.53712552 9.17042523 13 17 C10.38029207 18.53064939 7.75498357 20.04969748 5.125 21.5625 C4.00544922 22.21895508 4.00544922 22.21895508 2.86328125 22.88867188 C2.14785156 23.29794922 1.43242187 23.70722656 0.6953125 24.12890625 C0.03547363 24.51119385 -0.62436523 24.89348145 -1.30419922 25.28735352 C-1.86381348 25.52252686 -2.42342773 25.7577002 -3 26 C-3.66 25.67 -4.32 25.34 -5 25 C-4.45730469 24.66226563 -3.91460937 24.32453125 -3.35546875 23.9765625 C-2.64003906 23.53054687 -1.92460937 23.08453125 -1.1875 22.625 C-0.47980469 22.18414062 0.22789062 21.74328125 0.95703125 21.2890625 C2.65432039 20.21811524 4.33014358 19.11323761 6 18 C6.99 18 7.98 18 9 18 C9 17.34 9 16.68 9 16 C9.66 16 10.32 16 11 16 C8.66181732 11.83058576 6.50761846 8.14559648 2.6875 5.1875 C1.800625 4.465625 0.91375 3.74375 0 3 C0 2.01 0 1.02 0 0 Z " fill="#7168CC" transform="translate(369,115)"/>
<path d="M0 0 C0.66 0 1.32 0 2 0 C2.13539281 2.89740622 2.23426829 5.78845621 2.3125 8.6875 C2.35439453 9.50412109 2.39628906 10.32074219 2.43945312 11.16210938 C2.53197233 15.73255814 2.48446766 17.40737212 -0.51953125 21.08203125 C-1.33808594 21.71496094 -2.15664063 22.34789062 -3 23 C-3 20.36 -3 17.72 -3 15 C-2.34 15 -1.68 15 -1 15 C-0.67 10.05 -0.34 5.1 0 0 Z " fill="#756DD6" transform="translate(701,108)"/>
<path d="M0 0 C5.38609224 2.27873133 9.77021475 6.15532212 13 11 C12.67 11.66 12.34 12.32 12 13 C9.5 11.625 9.5 11.625 7 10 C7 9.34 7 8.68 7 8 C6.01 7.67 5.02 7.34 4 7 C4 6.34 4 5.68 4 5 C2.68 5.33 1.36 5.66 0 6 C-1.125 2.25 -1.125 2.25 0 0 Z " fill="#756BDC" transform="translate(787,113)"/>
<path d="M0 0 C0.33 0 0.66 0 1 0 C1.20140476 3.62528568 0.85776765 5.86501708 -1 9 C-0.01 9 0.98 9 2 9 C2 10.32 2 11.64 2 13 C1.34 13 0.68 13 0 13 C-0.33 13.66 -0.66 14.32 -1 15 C-1.33 14.34 -1.66 13.68 -2 13 C-2.4021875 14.2065625 -2.4021875 14.2065625 -2.8125 15.4375 C-3.204375 16.283125 -3.59625 17.12875 -4 18 C-4.99 18.33 -5.98 18.66 -7 19 C-4.94235079 12.54646385 -2.57616518 6.2638737 0 0 Z " fill="#756BD9" transform="translate(54,106)"/>
<path d="M0 0 C0.68191406 -0.00386719 1.36382812 -0.00773437 2.06640625 -0.01171875 C6.51555248 -0.00324419 10.73458055 0.40281612 15.125 1.125 C15.125 1.455 15.125 1.785 15.125 2.125 C12.31266245 2.2948931 9.50018151 2.46098232 6.6875 2.625 C5.5128418 2.69654297 5.5128418 2.69654297 4.31445312 2.76953125 C-0.48566549 3.04608129 -5.23941388 3.15165304 -10.04711914 3.04492188 C-11.97457513 3.00493823 -11.97457513 3.00493823 -13.875 4.125 C-13.545 3.135 -13.215 2.145 -12.875 1.125 C-8.57717639 0.07144791 -4.39880339 -0.02466619 0 0 Z " fill="#564CE8" transform="translate(483.875,106.875)"/>
<path d="M0 0 C0.33 0 0.66 0 1 0 C1.33 2.64 1.66 5.28 2 8 C9.59 8 17.18 8 25 8 C25.66 6.68 26.32 5.36 27 4 C27.33 4 27.66 4 28 4 C28.042721 5.66611905 28.04063832 7.33382885 28 9 C27 10 27 10 24.40795898 10.11352539 C23.28204346 10.10828857 22.15612793 10.10305176 20.99609375 10.09765625 C19.78115234 10.09443359 18.56621094 10.09121094 17.31445312 10.08789062 C16.03505859 10.07951172 14.75566406 10.07113281 13.4375 10.0625 C12.15423828 10.05798828 10.87097656 10.05347656 9.54882812 10.04882812 C6.36583978 10.03699545 3.18294238 10.02051068 0 10 C0 6.7 0 3.4 0 0 Z " fill="#776FCC" transform="translate(778,195)"/>
<path d="M0 0 C1.32 0 2.64 0 4 0 C2.44298069 4.67105792 -0.08447373 8.08705685 -3 12 C-5.12508244 8.81237635 -5.5020163 6.73487777 -6 3 C-3 3 -3 3 0 5 C-0.2784375 4.0409375 -0.2784375 4.0409375 -0.5625 3.0625 C-0.706875 2.381875 -0.85125 1.70125 -1 1 C-0.67 0.67 -0.34 0.34 0 0 Z " fill="#6E65DD" transform="translate(167,94)"/>
<path d="M0 0 C0.66 0.33 1.32 0.66 2 1 C1.67 2.32 1.34 3.64 1 5 C0.01 5 -0.98 5 -2 5 C-2.33 5.99 -2.66 6.98 -3 8 C-3.66 8 -4.32 8 -5 8 C-6.32 11.63 -7.64 15.26 -9 19 C-9.33 19 -9.66 19 -10 19 C-9.40592326 10.38588729 -6.30747717 5.95706177 0 0 Z " fill="#766DCC" transform="translate(723,154)"/>
<path d="M0 0 C0 3 0 3 -2 6 C-2.66 6 -3.32 6 -4 6 C-4 6.99 -4 7.98 -4 9 C-4.99 9.66 -5.98 10.32 -7 11 C-9.5835346 14.76765463 -11.2685155 18.7949662 -13 23 C-14.21079153 19.36762541 -13.76395223 18.77432105 -12.125 15.4375 C-9.01570537 9.45673213 -4.68201892 4.79422417 0 0 Z " fill="#746BD1" transform="translate(300,119)"/>
<path d="M0 0 C0.66 0 1.32 0 2 0 C2.66 1.65 3.32 3.3 4 5 C5.65 5 7.3 5 9 5 C9.625 7.3125 9.625 7.3125 10 10 C9.01 11.485 9.01 11.485 8 13 C6.66388095 11.0226631 5.33100742 9.04327287 4 7.0625 C3.6184375 6.49853516 3.236875 5.93457031 2.84375 5.35351562 C0 1.11328125 0 1.11328125 0 0 Z " fill="#756ADA" transform="translate(46,191)"/>
<path d="M0 0 C1 2 1 2 0.47094727 3.78759766 C0.17244873 4.48933105 -0.1260498 5.19106445 -0.43359375 5.9140625 C-0.75263672 6.67460937 -1.07167969 7.43515625 -1.40039062 8.21875 C-1.74263672 9.0128125 -2.08488281 9.806875 -2.4375 10.625 C-2.77587891 11.42679688 -3.11425781 12.22859375 -3.46289062 13.0546875 C-4.30166778 15.03939964 -5.14995245 17.02008875 -6 19 C-7.1171875 15.2890625 -7.1171875 15.2890625 -6.0625 12.6875 C-4.74185606 9.34704768 -4.86040731 6.55961371 -5 3 C-4.01 3 -3.02 3 -2 3 C-1.34 2.01 -0.68 1.02 0 0 Z " fill="#7066D4" transform="translate(87,145)"/>
<path d="M0 0 C0.763125 0.20625 1.52625 0.4125 2.3125 0.625 C1.35913979 1.94111677 0.39964226 3.25278961 -0.5625 4.5625 C-1.09617187 5.29339844 -1.62984375 6.02429688 -2.1796875 6.77734375 C-3.6875 8.625 -3.6875 8.625 -5.6875 9.625 C-5.501875 8.861875 -5.31625 8.09875 -5.125 7.3125 C-4.45930827 4.53532625 -4.45930827 4.53532625 -5.6875 1.625 C-2.6875 -0.375 -2.6875 -0.375 0 0 Z " fill="#7067DC" transform="translate(662.6875,169.375)"/>
<path d="M0 0 C1 3 1 3 -0.5 6.3125 C-2.1234337 10.30344119 -2.20000131 11.9384571 -1 16 C-0.34 16.99 0.32 17.98 1 19 C0.67 19.99 0.34 20.98 0 22 C-4.97267206 15.06578947 -4.97267206 15.06578947 -5.0625 11.5625 C-3.44937167 7.67201402 -1.78663189 3.81425133 0 0 Z " fill="#766DCD" transform="translate(11,40)"/>
<path d="M0 0 C0.66 0 1.32 0 2 0 C2.66 0.99 3.32 1.98 4 3 C4.66 3 5.32 3 6 3 C6 4.32 6 5.64 6 7 C5.34 7 4.68 7 4 7 C4.350625 7.598125 4.70125 8.19625 5.0625 8.8125 C6 11 6 11 5 14 C2.46690767 9.35796103 0.53484401 5.34844008 0 0 Z " fill="#726AD6" transform="translate(712,179)"/>
<path d="M0 0 C2.33333333 2.33333333 4.66666667 4.66666667 7 7 C5.68 7 4.36 7 3 7 C2.67 8.65 2.34 10.3 2 12 C1.01 11.67 0.02 11.34 -1 11 C-0.67 7.37 -0.34 3.74 0 0 Z " fill="#7368DE" transform="translate(741,178)"/>
<path d="M0 0 C0 0.99 0 1.98 0 3 C3.63 3.66 7.26 4.32 11 5 C11 5.66 11 6.32 11 7 C4.79011871 6.55643705 0.39459439 5.08467498 -5 2 C-2 0 -2 0 0 0 Z " fill="#746DD5" transform="translate(193,198)"/>
<path d="M0 0 C-0.45261358 1.43931117 -0.91232979 2.87638999 -1.375 4.3125 C-1.63023438 5.11300781 -1.88546875 5.91351563 -2.1484375 6.73828125 C-3 9 -3 9 -5 12 C-5.08090971 10.37581255 -5.13914995 8.75048255 -5.1875 7.125 C-5.22230469 6.22007812 -5.25710937 5.31515625 -5.29296875 4.3828125 C-5.19628906 3.59648437 -5.09960938 2.81015625 -5 2 C-2 0 -2 0 0 0 Z " fill="#6F66D5" transform="translate(93,133)"/>
<path d="M0 0 C0.66 0.33 1.32 0.66 2 1 C2.4140625 4.16015625 2.4140625 4.16015625 2.625 8.0625 C2.69976563 9.35285156 2.77453125 10.64320313 2.8515625 11.97265625 C2.90054688 12.97167969 2.94953125 13.97070312 3 15 C1.53347983 12.11980724 0.17952126 9.20691485 -1.125 6.25 C-1.47820313 5.45078125 -1.83140625 4.6515625 -2.1953125 3.828125 C-2.59363281 2.92320312 -2.59363281 2.92320312 -3 2 C-2.01 2 -1.02 2 0 2 C0 1.34 0 0.68 0 0 Z " fill="#7168D6" transform="translate(774,132)"/>
<path d="M0 0 C0.33 0 0.66 0 1 0 C1.8125 2.6875 1.8125 2.6875 2 6 C-0.4375 8.875 -0.4375 8.875 -3 11 C-3.33 10.34 -3.66 9.68 -4 9 C-3.22265625 6.8359375 -3.22265625 6.8359375 -2.0625 4.375 C-1.68222656 3.55773437 -1.30195312 2.74046875 -0.91015625 1.8984375 C-0.60980469 1.27195313 -0.30945312 0.64546875 0 0 Z " fill="#756ADC" transform="translate(43,133)"/>
<path d="M0 0 C0.66 0.33 1.32 0.66 2 1 C1.01 2.98 0.02 4.96 -1 7 C-3.21736634 5.89131683 -5.03617993 4.50559539 -7 3 C-4.69631264 1.93347808 -2.35981813 0.93578995 0 0 Z " fill="#746CDE" transform="translate(192,111)"/>
<path d="M0 0 C1.98 0.495 1.98 0.495 4 1 C3.5206753 5.31392226 2.2542015 7.16569547 -1 10 C-0.67 8.02 -0.34 6.04 0 4 C0.66 4 1.32 4 2 4 C2 3.34 2 2.68 2 2 C1.34 2 0.68 2 0 2 C0 1.34 0 0.68 0 0 Z " fill="#7168D0" transform="translate(378,179)"/>
<path d="M0 0 C0.66 0.33 1.32 0.66 2 1 C1.67 2.32 1.34 3.64 1 5 C0.01 5 -0.98 5 -2 5 C-2.33 5.99 -2.66 6.98 -3 8 C-3.33 7.34 -3.66 6.68 -4 6 C-1.68421053 1.68421053 -1.68421053 1.68421053 0 0 Z " fill="#746BDB" transform="translate(723,154)"/>
<path d="M0 0 C0.33 0 0.66 0 1 0 C1.33 1.65 1.66 3.3 2 5 C2.66 4.67 3.32 4.34 4 4 C3.38722388 6.96175123 2.74627478 8.38058783 1 11 C-0.28317892 7.15046324 -0.06643637 4.05261865 0 0 Z " fill="#736AD9" transform="translate(400,176)"/>
<path d="M0 0 C0.66 0 1.32 0 2 0 C1.39009109 3.55780196 0.4216319 6.6828589 -1 10 C-3 6.25 -3 6.25 -3 4 C-2.01 4 -1.02 4 0 4 C0 2.68 0 1.36 0 0 Z " fill="#7166D6" transform="translate(77,166)"/>
<path d="M0 0 C0.66 0 1.32 0 2 0 C1.125 4.75 1.125 4.75 0 7 C-0.66 7 -1.32 7 -2 7 C-2 5.35 -2 3.7 -2 2 C-1.34 2 -0.68 2 0 2 C0 1.34 0 0.68 0 0 Z " fill="#6A5EE1" transform="translate(214,23)"/>
<path d="M0 0 C0.99 0.33 1.98 0.66 3 1 C1.7260411 3.03833424 0.38938077 5.03852126 -1 7 C-1.66 7 -2.32 7 -3 7 C-3.33 5.68 -3.66 4.36 -4 3 C-2.68 2.67 -1.36 2.34 0 2 C0 1.34 0 0.68 0 0 Z " fill="#685FD8" transform="translate(223,11)"/>
<path d="M0 0 C1.9375 0.375 1.9375 0.375 4 1 C4.33 1.66 4.66 2.32 5 3 C4.0625 5.125 4.0625 5.125 3 7 C0 2.25 0 2.25 0 0 Z " fill="#776BDF" transform="translate(16,68)"/>
<path d="" fill="#FFFFFF" transform="translate(0,0)"/>
<path d="" fill="#FFFFFF" transform="translate(0,0)"/>
<path d="" fill="#FFFFFF" transform="translate(0,0)"/>
<path d="" fill="#FFFFFF" transform="translate(0,0)"/>
<path d="" fill="#FFFFFF" transform="translate(0,0)"/>
<path d="" fill="#FFFFFF" transform="translate(0,0)"/>
<path d="" fill="#FFFFFF" transform="translate(0,0)"/>
<path d="" fill="#FFFFFF" transform="translate(0,0)"/>
<path d="" fill="#FFFFFF" transform="translate(0,0)"/>
<path d="" fill="#FFFFFF" transform="translate(0,0)"/>
<path d="" fill="#FFFFFF" transform="translate(0,0)"/>
<path d="" fill="#FFFFFF" transform="translate(0,0)"/>
<path d="" fill="#FFFFFF" transform="translate(0,0)"/>
<path d="" fill="#FFFFFF" transform="translate(0,0)"/>
<path d="" fill="#FFFFFF" transform="translate(0,0)"/>
<path d="" fill="#FFFFFF" transform="translate(0,0)"/>
<path d="" fill="#FFFFFF" transform="translate(0,0)"/>
<path d="" fill="#FFFFFF" transform="translate(0,0)"/>
<path d="" fill="#FFFFFF" transform="translate(0,0)"/>
<path d="" fill="#FFFFFF" transform="translate(0,0)"/>
<path d="" fill="#FFFFFF" transform="translate(0,0)"/>
<path d="" fill="#FFFFFF" transform="translate(0,0)"/>
<path d="" fill="#FFFFFF" transform="translate(0,0)"/>
<path d="" fill="#FFFFFF" transform="translate(0,0)"/>
<path d="" fill="#FFFFFF" transform="translate(0,0)"/>
<path d="" fill="#FFFFFF" transform="translate(0,0)"/>
<path d="" fill="#FFFFFF" transform="translate(0,0)"/>
<path d="" fill="#FFFFFF" transform="translate(0,0)"/>
<path d="" fill="#FFFFFF" transform="translate(0,0)"/>
<path d="" fill="#FFFFFF" transform="translate(0,0)"/>
<path d="" fill="#FFFFFF" transform="translate(0,0)"/>
<path d="" fill="#FFFFFF" transform="translate(0,0)"/>
<path d="" fill="#FFFFFF" transform="translate(0,0)"/>
<path d="" fill="#FFFFFF" transform="translate(0,0)"/>
<path d="" fill="#FFFFFF" transform="translate(0,0)"/>
<path d="" fill="#FFFFFF" transform="translate(0,0)"/>
<path d="" fill="#FFFFFF" transform="translate(0,0)"/>
<path d="" fill="#FFFFFF" transform="translate(0,0)"/>
<path d="" fill="#FFFFFF" transform="translate(0,0)"/>
<path d="" fill="#FFFFFF" transform="translate(0,0)"/>
<path d="" fill="#FFFFFF" transform="translate(0,0)"/>
<path d="" fill="#FFFFFF" transform="translate(0,0)"/>
<path d="" fill="#FFFFFF" transform="translate(0,0)"/>
</svg>
